<?xml version="1.0" standalone="no"?>
<!DOCTYPE svg PUBLIC "-//W3C//DTD SVG 20010904//EN"
 "http://www.w3.org/TR/2001/REC-SVG-20010904/DTD/svg10.dtd">
<svg version="1.0" xmlns="http://www.w3.org/2000/svg"
 width="16.000000pt" height="16.000000pt" viewBox="0 0 16.000000 16.000000"
 preserveAspectRatio="xMidYMid meet">
<metadata>
Created by potrace 1.11, written by Peter Selinger 2001-2013
</metadata>
<g transform="translate(0.000000,16.000000) scale(0.001563,-0.001563)"
fill="#000000" stroke="none">
<path d="M4819 10023 c-1 -5 -1 -11 0 -15 0 -5 -9 -8 -21 -9 -13 0 -31 -2 -40
-4 -10 -2 -18 2 -18 8 0 9 -2 9 -8 0 -4 -6 -43 -14 -87 -17 -44 -3 -91 -7
-105 -10 -14 -2 -49 -7 -79 -10 -30 -4 -64 -9 -75 -11 -12 -3 -39 -7 -61 -10
-22 -2 -56 -8 -75 -13 -20 -5 -50 -8 -67 -8 -17 1 -30 -2 -28 -5 2 -3 -18 -10
-46 -15 -28 -6 -49 -7 -49 -2 0 5 -7 2 -16 -6 -8 -9 -27 -17 -42 -18 -46 -2
-50 -3 -58 -11 -4 -4 -14 -1 -22 6 -11 8 -14 8 -9 0 10 -16 -5 -23 -48 -25
-19 -1 -35 -4 -35 -7 0 -4 -24 -12 -52 -19 -65 -16 -69 -18 -88 -25 -68 -26
-152 -47 -161 -41 -7 4 -9 3 -6 -2 3 -5 -14 -17 -39 -26 -30 -10 -44 -12 -44
-4 0 6 -5 3 -11 -7 -6 -9 -14 -15 -20 -12 -5 4 -9 1 -9 -4 0 -6 -5 -11 -11
-11 -5 0 -7 6 -4 13 4 6 1 5 -7 -3 -16 -19 -175 -83 -188 -75 -5 3 -12 0 -16
-6 -5 -8 -3 -9 7 -4 11 6 11 5 3 -5 -7 -6 -23 -13 -37 -13 -14 -1 -23 -5 -21
-8 8 -13 -29 -19 -42 -8 -11 9 -13 9 -9 -3 4 -10 -13 -23 -57 -44 -35 -16 -69
-28 -75 -28 -7 1 -13 -2 -13 -6 0 -5 -26 -21 -57 -37 -32 -16 -88 -46 -124
-66 -36 -20 -68 -36 -70 -34 -2 1 -3 0 -2 -2 2 -4 -105 -71 -113 -71 -8 0 -89
-55 -92 -62 -2 -5 -8 -8 -13 -8 -5 0 -28 -13 -50 -30 -23 -16 -45 -27 -50 -24
-5 3 -9 -2 -9 -10 0 -9 -3 -16 -8 -16 -4 0 -39 -22 -76 -50 -38 -27 -74 -46
-79 -43 -6 3 -7 1 -4 -4 4 -6 -9 -21 -28 -34 -19 -13 -35 -27 -35 -31 0 -5 -5
-8 -11 -8 -5 0 -7 5 -3 12 4 7 3 8 -5 4 -6 -4 -9 -11 -7 -15 3 -4 -17 -25 -45
-46 -28 -21 -64 -51 -81 -66 -16 -16 -35 -26 -41 -22 -5 3 -7 2 -4 -4 8 -13
-50 -66 -64 -58 -5 4 -8 3 -7 -2 5 -15 -40 -56 -53 -48 -8 5 -10 4 -5 -3 6
-10 -26 -52 -40 -52 -3 0 -17 -14 -31 -30 -21 -26 -28 -29 -42 -18 -14 11 -14
11 -4 -3 11 -13 8 -20 -17 -42 -17 -15 -30 -31 -30 -35 0 -4 -13 -16 -30 -25
-16 -10 -29 -23 -27 -30 1 -7 -6 -11 -15 -11 -10 1 -15 -2 -12 -8 9 -13 -69
-89 -85 -83 -12 5 -12 3 0 -12 12 -15 12 -16 -3 -10 -10 3 -20 1 -24 -5 -4 -7
-3 -8 4 -4 7 4 12 3 12 -3 0 -5 -6 -14 -13 -18 -7 -4 -28 -27 -46 -50 -19 -23
-39 -40 -45 -36 -6 3 -8 3 -4 -2 11 -12 -11 -47 -25 -39 -7 4 -9 4 -5 -1 4 -4
3 -14 -3 -22 -10 -11 -15 -11 -28 -1 -14 12 -15 11 -1 -6 13 -16 12 -20 -3
-31 -9 -7 -17 -17 -17 -23 0 -6 -4 -12 -8 -14 -4 -1 -23 -24 -41 -50 -19 -26
-38 -45 -44 -41 -6 3 -7 1 -3 -5 7 -11 -52 -102 -66 -102 -4 0 -8 -6 -8 -14 0
-7 -10 -24 -22 -38 -13 -14 -24 -32 -26 -39 -2 -8 -11 -21 -20 -29 -9 -9 -18
-22 -20 -30 -2 -8 -10 -21 -19 -27 -9 -7 -14 -13 -10 -13 4 0 0 -11 -9 -25 -9
-14 -21 -22 -27 -18 -6 3 -7 1 -3 -5 6 -11 -9 -51 -24 -62 -3 -3 -14 -22 -23
-42 -10 -21 -23 -38 -29 -38 -6 0 -8 -3 -5 -7 4 -3 -1 -12 -11 -20 -10 -9 -11
-11 -2 -7 11 6 11 2 -3 -16 -10 -14 -20 -33 -24 -42 -3 -10 -10 -18 -16 -18
-6 0 -7 -3 -4 -6 4 -4 -1 -20 -10 -35 -14 -23 -19 -26 -32 -16 -14 11 -14 10
-2 -6 15 -19 8 -44 -27 -97 -16 -25 -18 -30 -21 -51 0 -5 -6 -7 -13 -3 -6 4
-8 3 -4 -4 8 -13 -14 -63 -25 -57 -4 3 -5 -5 -1 -17 4 -16 2 -20 -10 -16 -8 4
-15 0 -15 -8 0 -7 4 -11 8 -8 10 6 -29 -87 -42 -100 -5 -6 -9 -18 -9 -29 0
-10 -4 -16 -9 -13 -5 3 -9 0 -8 -7 1 -34 -4 -48 -15 -41 -7 4 -8 3 -4 -5 4 -6
4 -21 1 -32 -6 -17 -9 -19 -17 -8 -8 11 -8 10 -4 -5 6 -18 -36 -149 -54 -172
-6 -6 -8 -13 -5 -15 2 -3 -8 -44 -23 -92 -16 -48 -30 -86 -33 -83 -2 2 -5 -8
-5 -22 -3 -45 -58 -253 -67 -252 -5 1 -12 -2 -15 -6 -4 -4 -1 -4 6 0 8 5 12 0
12 -14 0 -12 -3 -19 -8 -17 -4 3 -8 -15 -9 -40 -1 -24 -5 -52 -9 -61 -4 -9 -6
-25 -5 -34 1 -11 -4 -18 -16 -18 -13 0 -15 -2 -5 -9 10 -6 11 -22 2 -77 -14
-92 -19 -106 -33 -97 -8 4 -8 1 1 -9 8 -10 10 -30 7 -54 -4 -22 -7 -46 -8 -54
-2 -8 -7 -21 -11 -29 -7 -11 -6 -12 5 -6 11 7 12 6 3 -6 -6 -8 -9 -29 -7 -47
1 -18 0 -31 -5 -28 -4 2 -5 -19 -3 -46 2 -33 0 -48 -7 -44 -6 3 -14 2 -17 -4
-4 -6 -1 -9 7 -8 8 2 12 -6 11 -22 -8 -91 -13 -219 -13 -303 1 -67 -3 -104
-12 -115 -10 -12 -10 -14 -1 -8 10 5 13 -6 13 -48 0 -34 -5 -56 -12 -59 -9 -4
-8 -6 2 -6 12 -1 15 -19 17 -89 1 -48 5 -104 9 -125 4 -25 1 -43 -8 -54 -7 -9
-8 -14 -2 -10 8 4 13 -4 16 -24 3 -22 1 -29 -9 -25 -7 3 -13 1 -13 -4 0 -6 7
-10 16 -10 11 0 15 -6 11 -20 -3 -11 -1 -23 4 -26 5 -3 4 -14 -2 -26 -6 -12
-7 -18 -1 -14 14 8 20 -71 7 -86 -7 -8 -6 -9 4 -3 11 6 13 2 7 -18 -3 -14 -2
-27 2 -29 5 -2 12 -26 15 -55 5 -46 4 -51 -11 -47 -9 2 -7 -1 6 -7 12 -7 22
-18 22 -26 0 -9 -5 -11 -12 -7 -10 6 -10 5 -1 -7 6 -8 14 -26 17 -39 2 -14 7
-32 10 -40 8 -22 19 -91 20 -122 1 -16 5 -28 10 -28 5 0 6 -3 3 -7 -4 -3 -3
-11 2 -17 6 -9 32 -105 56 -211 2 -12 16 -46 23 -59 3 -5 -1 -6 -9 -1 -12 8
-12 6 0 -8 7 -9 10 -17 5 -17 -5 0 -3 -4 3 -8 7 -4 14 -17 16 -27 1 -11 6 -26
10 -32 5 -8 3 -13 -5 -13 -11 0 -11 -2 0 -9 18 -11 66 -144 50 -136 -7 4 -5 0
4 -8 10 -8 20 -25 22 -38 3 -13 5 -26 6 -29 2 -3 2 -8 1 -12 0 -5 4 -8 10 -8
6 0 9 -7 5 -15 -3 -8 -2 -15 3 -15 8 0 13 -13 22 -55 2 -5 9 -16 16 -23 7 -7
13 -20 13 -28 0 -8 7 -29 16 -46 13 -26 14 -30 2 -25 -8 3 -15 -1 -15 -8 0 -7
8 -10 17 -8 11 3 22 -11 40 -54 14 -32 23 -64 22 -72 -2 -7 1 -10 6 -7 6 3 15
-8 21 -24 5 -17 7 -30 3 -30 -4 0 1 -5 10 -11 10 -5 18 -19 18 -29 0 -11 3
-20 8 -20 4 0 13 -12 19 -27 10 -20 10 -30 1 -40 -8 -11 -7 -12 5 -7 12 4 20
-2 27 -21 6 -15 19 -39 30 -52 11 -14 17 -29 14 -34 -3 -5 0 -9 6 -9 6 0 9 -4
6 -9 -4 -5 -3 -11 1 -13 5 -1 20 -22 35 -45 19 -29 24 -43 15 -46 -7 -3 -3 -6
7 -6 11 -1 17 -4 13 -7 -3 -3 5 -18 19 -33 14 -14 27 -36 30 -48 4 -13 10 -23
15 -23 5 0 9 -7 9 -15 0 -8 5 -15 11 -15 6 0 8 -9 4 -22 -4 -16 -3 -19 3 -9 7
10 11 10 17 1 4 -7 1 -16 -6 -22 -11 -7 -10 -8 5 -6 10 2 21 -3 24 -11 3 -9 0
-11 -8 -6 -9 5 -11 4 -6 -4 4 -6 12 -9 17 -5 6 3 13 -3 16 -15 3 -12 10 -21
15 -21 5 0 6 -10 3 -22 -4 -15 -3 -19 3 -10 7 10 11 10 21 -2 7 -8 10 -20 6
-26 -4 -6 -1 -9 7 -8 7 2 12 -3 10 -9 -1 -7 2 -13 7 -13 9 0 91 -104 91 -116
0 -3 11 -15 26 -26 14 -11 23 -23 20 -26 -3 -3 3 -12 15 -20 11 -8 18 -20 15
-29 -3 -8 -2 -12 3 -8 5 3 21 -10 35 -27 15 -18 31 -38 36 -45 6 -7 10 -17 10
-23 0 -6 5 -8 12 -4 8 5 9 2 5 -9 -3 -9 -3 -16 1 -16 4 1 14 1 22 -1 11 -1 9
-4 -5 -10 -18 -8 -18 -9 5 -10 28 -2 90 -67 74 -78 -5 -4 -10 -14 -12 -22 -1
-10 3 -8 13 5 16 20 16 20 27 1 6 -11 26 -33 44 -50 19 -17 34 -36 34 -43 0
-6 5 -15 12 -19 7 -5 8 -2 3 7 -4 8 8 -1 27 -19 20 -19 35 -41 33 -50 -1 -10
0 -11 2 -4 8 22 25 13 19 -10 -3 -13 -3 -17 0 -10 8 18 24 4 18 -16 -5 -14 -4
-15 5 -2 9 13 12 12 25 -5 8 -11 13 -29 10 -40 -5 -18 -4 -19 6 -2 10 16 14
15 45 -15 18 -18 51 -48 74 -66 23 -19 38 -38 35 -43 -3 -5 -1 -8 5 -7 14 4
100 -64 101 -80 0 -6 3 -11 8 -11 20 3 32 -3 32 -17 0 -8 4 -12 10 -9 5 3 10
1 10 -4 0 -6 7 -11 15 -11 9 0 18 -7 21 -15 4 -8 11 -15 16 -15 6 0 29 -14 52
-32 47 -36 67 -55 48 -44 -7 4 -12 4 -11 -1 3 -20 -2 -23 -23 -13 -21 10 -21
10 -6 -3 10 -8 14 -18 10 -23 -4 -4 0 -3 9 4 9 6 20 8 24 4 5 -4 5 -2 2 4 -4
7 0 14 8 18 8 3 15 2 15 -3 0 -4 12 -13 26 -19 15 -7 22 -17 18 -24 -5 -8 -2
-9 10 -5 10 4 15 3 11 -3 -3 -6 1 -10 10 -10 9 0 23 -6 30 -12 28 -25 40 -34
50 -37 6 -2 9 -7 7 -12 -1 -5 5 -12 13 -15 8 -3 12 -11 8 -17 -3 -6 -1 -7 6
-3 9 6 9 11 -1 23 -12 15 -11 15 10 2 12 -8 22 -20 22 -27 0 -7 -5 -10 -12 -6
-7 5 -8 3 -3 -6 6 -10 11 -9 22 5 8 13 13 14 13 5 0 -7 3 -10 7 -7 3 4 12 2
20 -4 15 -13 18 -43 3 -34 -5 3 -10 1 -10 -4 0 -17 18 -13 29 6 6 11 11 13 11
5 0 -8 5 -10 12 -6 7 5 9 2 5 -9 -4 -11 -2 -14 8 -11 18 7 75 -26 75 -43 0 -7
5 -13 11 -13 5 0 7 5 3 11 -4 8 0 7 15 -1 12 -6 24 -17 27 -25 3 -8 12 -11 20
-8 8 3 14 -1 14 -8 0 -7 3 -10 6 -6 10 9 85 -34 78 -45 -4 -7 -9 -6 -14 2 -5
8 -9 7 -13 -5 -4 -9 -3 -13 3 -10 6 3 10 1 10 -6 0 -7 7 -4 15 7 13 16 16 17
25 4 5 -8 10 -11 10 -6 0 5 6 3 13 -3 8 -6 16 -9 19 -6 3 3 11 -1 18 -10 11
-13 10 -14 -4 -9 -9 3 -16 2 -16 -4 0 -11 18 -11 38 1 7 5 12 4 12 -2 0 -6 7
-11 15 -11 16 0 56 -20 66 -33 3 -4 16 -9 27 -10 12 -1 22 -5 22 -9 0 -4 7 -8
15 -8 17 0 57 -20 67 -34 4 -6 2 -19 -3 -30 -10 -20 -10 -20 5 -2 9 10 13 23
10 27 -5 8 20 2 41 -10 6 -3 16 -6 24 -8 19 -2 30 -23 24 -42 -4 -14 -3 -14 5
-1 6 8 8 18 6 22 -6 10 27 -2 45 -16 8 -6 16 -10 18 -8 1 1 8 2 14 2 8 0 8 -5
-1 -15 -7 -8 -16 -13 -20 -10 -5 3 -11 1 -14 -4 -8 -12 13 -8 41 7 13 7 24 8
28 3 3 -5 -4 -13 -16 -16 -11 -4 -18 -9 -15 -12 3 -3 17 2 30 11 25 16 25 16
21 -12 -2 -20 1 -29 11 -29 10 0 11 4 3 13 -6 7 -8 18 -4 24 8 14 46 3 62 -18
11 -13 13 -13 13 -1 0 12 2 12 10 -1 13 -20 12 -33 -2 -24 -7 4 -8 3 -4 -5 10
-15 29 -3 22 15 -6 16 10 19 19 4 3 -5 -3 -18 -15 -30 -11 -11 -16 -20 -11
-20 5 0 19 12 30 27 22 30 28 17 10 -20 -9 -20 -9 -20 4 -5 16 20 32 25 21 7
-5 -8 -1 -8 14 0 27 14 72 14 72 0 0 -6 -7 -9 -14 -6 -10 4 -13 1 -9 -9 7 -18
13 -18 29 4 9 11 13 13 14 4 0 -7 5 -10 10 -7 6 3 10 2 10 -3 0 -5 12 -14 27
-21 20 -9 28 -9 33 0 4 6 13 8 19 5 11 -7 56 -18 78 -19 10 0 10 -4 1 -14 -8
-10 -13 -11 -18 -3 -5 8 -9 6 -13 -5 -4 -9 -3 -13 3 -10 6 3 10 1 10 -6 0 -7
6 -5 13 6 9 11 19 15 27 10 8 -5 11 -4 7 3 -7 10 18 8 53 -5 15 -6 55 -13 77
-15 7 -1 15 -10 19 -20 6 -21 19 -23 30 -6 4 6 3 8 -4 4 -6 -3 -14 -1 -18 5
-5 9 1 10 22 4 37 -9 74 -16 97 -18 9 -1 17 -5 17 -10 0 -5 -10 -5 -22 -2 -19
6 -21 5 -10 -6 10 -11 16 -11 32 -1 25 15 38 16 22 0 -7 -7 -12 -17 -12 -22 0
-6 4 -5 9 3 7 11 13 10 35 -4 15 -10 29 -15 33 -11 3 3 2 6 -4 6 -5 0 -10 7
-10 15 0 9 8 13 21 10 12 -2 24 -4 27 -4 11 -2 6 -31 -5 -31 -17 0 -38 -38
-26 -45 6 -4 9 -1 8 7 -2 7 3 12 10 10 8 -1 11 2 8 7 -3 5 1 11 9 15 8 3 19
-3 24 -12 6 -9 11 -12 11 -6 0 6 -7 17 -15 24 -8 7 -12 16 -9 21 7 13 34 11
34 -2 0 -5 -6 -7 -12 -3 -7 4 -5 -1 4 -12 14 -15 20 -16 30 -5 11 10 9 11 -6
5 -12 -5 -17 -4 -13 3 5 8 88 10 107 3 3 -1 8 -2 13 -1 11 2 9 -17 -3 -24 -6
-3 -10 -10 -10 -16 0 -5 8 -1 18 8 11 10 17 21 15 25 -5 10 11 10 21 1 4 -4
19 -8 34 -9 15 0 42 -2 60 -2 17 -1 32 -7 32 -13 0 -6 -10 -8 -22 -5 -13 3
-18 3 -11 0 10 -4 10 -8 0 -19 -7 -7 -15 -11 -18 -9 -3 2 -6 -3 -6 -11 0 -10
9 -6 30 11 29 25 47 24 47 -2 0 -8 5 -14 11 -14 7 0 5 10 -6 26 -9 14 -14 29
-10 32 6 6 20 -10 28 -33 3 -6 8 -6 13 -1 5 5 4 11 -3 13 -22 8 -14 19 12 19
30 0 30 0 9 -31 -9 -14 -12 -25 -8 -25 5 0 14 10 19 23 9 20 16 22 98 22 49 0
90 -2 92 -6 2 -3 17 -4 34 -3 19 1 32 -4 35 -13 5 -11 2 -13 -9 -9 -9 3 -13 2
-10 -4 3 -6 1 -10 -6 -10 -7 0 -10 -3 -7 -6 11 -11 50 17 44 32 -3 8 1 14 10
14 9 0 12 -5 8 -12 -5 -9 -2 -9 9 1 10 8 17 9 17 3 0 -6 -5 -14 -10 -17 -6 -3
-10 -11 -10 -16 0 -6 11 3 25 18 13 15 25 23 25 17 0 -6 -7 -17 -15 -24 -8 -7
-15 -17 -15 -23 0 -6 7 -1 16 11 9 13 22 21 29 18 7 -2 18 1 24 7 13 13 151
20 151 7 0 -4 7 -11 16 -14 14 -5 15 -4 4 9 -10 12 -9 15 6 16 11 1 42 2 69 4
28 1 55 4 60 5 6 1 12 1 15 0 19 -7 41 -7 46 1 7 12 24 11 24 -2 0 -5 -4 -7
-10 -4 -5 3 -10 2 -10 -4 0 -5 18 -8 40 -6 22 2 38 0 36 -4 -3 -4 1 -8 9 -8 8
0 12 4 9 8 -2 4 -1 9 3 12 5 2 3 2 -4 1 -7 -2 -15 1 -18 6 -4 6 4 11 17 11 30
2 72 6 126 14 24 3 42 2 42 -4 0 -5 -13 -8 -30 -6 -16 2 -32 0 -35 -6 -4 -5
-11 -7 -16 -4 -5 4 -9 1 -9 -5 0 -7 7 -9 15 -6 9 3 18 -1 22 -9 5 -14 7 -13
18 1 14 20 51 28 60 14 9 -15 19 -12 31 8 9 14 8 18 -6 18 -12 0 -16 -5 -12
-16 5 -13 3 -13 -11 -1 -9 7 -17 16 -17 20 0 6 48 12 112 14 20 1 35 4 33 7
-2 3 4 6 13 6 9 1 31 4 47 8 17 4 44 8 60 10 17 1 36 6 44 10 8 5 12 5 9 0 -3
-5 4 -17 17 -26 20 -15 25 -16 35 -3 9 11 17 12 30 5 16 -8 18 -7 15 10 -5 25
8 26 31 2 17 -16 18 -16 11 1 -3 9 -2 17 3 17 6 0 10 4 10 8 0 5 -7 9 -15 9
-8 0 -12 -4 -9 -9 3 -4 1 -8 -5 -8 -16 0 -22 17 -8 22 6 3 22 4 35 3 12 -1 22
1 22 5 0 4 6 7 13 8 33 4 65 11 90 21 16 6 33 9 38 5 5 -3 9 0 9 5 0 6 3 10 8
9 13 -3 77 14 90 24 6 6 12 8 12 4 0 -3 17 1 38 10 20 8 49 16 64 16 16 1 25
5 22 12 -3 6 4 0 15 -13 12 -13 21 -18 21 -13 0 6 -5 14 -10 17 -6 4 -7 11 -4
17 4 6 11 2 18 -10 11 -21 12 -21 24 -2 7 11 8 20 3 20 -5 0 -12 -6 -14 -12
-4 -10 -6 -10 -6 -1 -2 19 19 26 36 11 15 -11 16 -11 10 5 -3 9 -2 17 3 17 9
0 14 -14 11 -32 -2 -15 17 -8 23 8 3 8 2 12 -4 9 -6 -3 -10 0 -10 8 0 11 7 13
22 9 14 -3 19 -1 14 6 -5 8 -1 10 10 5 12 -4 15 -3 10 5 -5 8 -2 10 8 6 9 -3
16 -1 16 6 0 6 4 9 9 5 5 -3 12 -1 16 5 4 6 10 8 15 5 5 -3 12 0 15 6 5 6 12
3 22 -11 10 -15 21 -19 35 -14 15 4 18 3 13 -6 -5 -9 -4 -11 4 -6 18 12 1 27
-22 21 -21 -6 -20 -5 3 16 l25 21 -28 -16 c-24 -15 -27 -15 -27 -1 0 9 4 14 9
10 5 -3 16 1 24 9 10 10 18 11 24 5 7 -7 20 -6 41 5 17 9 33 12 36 7 3 -5 -8
-14 -24 -20 -17 -5 -30 -13 -30 -16 0 -7 72 23 84 35 5 5 20 2 35 -7 l26 -15
-25 22 c-17 14 -21 23 -12 27 6 2 12 9 12 15 0 6 -6 6 -15 -2 -9 -8 -15 -8
-15 -2 0 12 38 27 59 23 7 -1 10 2 6 9 -3 6 -3 9 2 8 4 -1 23 6 41 16 19 9 36
15 39 13 2 -3 13 3 24 14 11 11 24 17 28 14 5 -2 12 2 15 11 3 8 10 13 15 10
5 -3 14 1 21 9 7 8 16 13 20 10 5 -3 15 2 24 11 9 8 20 13 25 10 5 -3 11 1 15
9 3 9 12 12 22 8 12 -4 15 -3 10 5 -5 8 -1 10 10 5 16 -6 15 -7 -2 -20 -10 -7
-13 -13 -7 -13 7 0 15 5 18 10 9 15 25 12 25 -6 0 -9 -5 -12 -12 -8 -7 4 -8 3
-4 -4 10 -16 11 -16 30 13 11 17 12 23 3 19 -7 -2 -21 3 -32 12 -11 8 -14 13
-7 9 6 -3 12 -1 12 4 0 6 5 11 11 11 6 0 31 15 57 32 26 18 50 33 55 34 4 1
10 3 15 4 4 1 10 2 14 1 4 0 12 8 18 19 6 11 16 20 22 20 6 0 3 -9 -6 -19 -19
-21 -9 -35 14 -20 11 6 12 9 2 9 -7 0 -10 5 -7 10 5 8 12 7 23 -2 12 -10 14
-10 8 0 -7 11 4 16 31 13 6 -1 14 3 18 9 5 8 12 7 23 -2 14 -10 15 -10 5 2
-17 19 -16 30 1 30 8 0 14 8 13 19 -1 12 -6 17 -15 14 -10 -4 -11 -8 -2 -13 8
-5 7 -9 -3 -13 -21 -8 -15 23 6 35 9 5 17 7 17 4 0 -6 28 16 58 44 14 13 15
13 10 0 -3 -9 0 -24 8 -35 8 -10 14 -14 14 -9 0 6 -5 15 -12 22 -9 9 -9 12 -1
12 7 0 15 -4 18 -10 3 -5 11 -10 18 -10 6 0 2 7 -9 16 -19 15 -18 15 3 9 12
-3 24 -1 28 5 5 7 12 5 22 -7 13 -16 13 -16 3 5 -14 28 4 59 25 42 14 -12 17
19 3 37 -5 7 -5 14 2 18 5 3 10 3 10 -2 0 -4 5 0 11 10 6 9 14 15 20 12 5 -4
9 -2 9 4 0 13 42 52 49 46 2 -3 -4 -12 -15 -19 -10 -8 -19 -18 -20 -23 -2 -17
-17 -43 -25 -43 -4 0 -6 8 -3 18 5 14 4 15 -5 2 -15 -21 -14 -30 4 -30 8 0 19
9 25 21 9 16 14 18 26 8 10 -8 14 -8 14 0 0 6 -4 11 -8 11 -5 0 -9 7 -9 15 0
24 17 18 27 -10 5 -14 12 -25 14 -25 7 0 -5 32 -17 47 -12 17 5 17 21 1 9 -9
12 -9 12 0 0 7 -5 12 -11 12 -5 0 -8 4 -4 10 3 5 12 7 20 3 18 -6 20 13 3 23
-7 5 -8 2 -3 -7 5 -8 5 -11 0 -7 -4 4 -14 3 -22 -3 -7 -6 -13 -7 -13 -2 0 5
11 16 25 23 13 7 22 18 18 23 -3 6 -1 7 5 3 7 -4 12 -1 12 6 1 7 9 3 21 -11
11 -13 22 -21 26 -17 4 3 -2 13 -13 20 -19 14 -18 15 5 40 14 14 27 24 29 21
3 -3 10 3 17 12 16 21 38 8 26 -15 -8 -14 -4 -17 26 -18 25 -1 31 2 19 8 -9 5
-21 6 -26 3 -22 -14 -8 15 16 32 17 13 23 24 18 36 -3 9 -11 14 -17 10 -6 -4
-7 -1 -3 6 5 7 10 10 13 7 3 -3 23 12 43 32 116 113 137 132 143 125 4 -3 7 0
7 9 0 20 46 62 54 50 3 -6 3 -17 0 -25 -3 -8 0 -18 7 -23 8 -5 10 -3 4 5 -11
18 46 75 58 59 6 -10 7 -9 4 2 -2 8 -10 14 -16 12 -6 -1 -11 2 -11 8 0 17 5
25 13 22 4 -1 7 5 7 13 0 8 9 19 20 25 11 6 18 15 15 21 -4 5 -1 8 6 7 7 -2
13 3 14 10 0 6 3 12 8 12 4 0 10 0 13 0 4 0 2 -6 -3 -13 -7 -8 -4 -18 9 -30
19 -18 26 -9 6 11 -8 8 -8 15 2 27 13 16 15 15 27 -1 15 -20 18 -7 4 15 -8 12
-12 12 -25 2 -19 -16 -20 -3 -2 22 13 17 37 24 35 10 -5 -29 2 -36 16 -17 19
25 19 38 0 31 -8 -4 -17 -2 -20 3 -5 9 7 14 27 12 3 -1 9 5 12 14 4 9 2 12 -5
8 -8 -4 -7 0 0 15 12 22 41 29 41 10 0 -6 -8 -8 -17 -5 -17 6 -17 5 0 -8 13
-10 14 -15 6 -18 -9 -3 -8 -6 3 -10 11 -5 15 -2 13 10 -1 9 2 22 7 28 5 8 3
14 -7 18 -9 3 -13 11 -10 16 5 7 11 8 19 1 8 -7 17 -6 26 1 13 8 12 9 -2 5
-23 -8 -30 18 -9 37 20 18 51 21 51 6 0 -5 5 -10 10 -10 18 0 10 18 -10 25
-20 6 -20 7 -1 33 22 30 71 86 57 65 -7 -10 -4 -12 8 -7 11 4 16 14 13 25 -3
12 0 19 10 19 8 0 12 -3 10 -7 -3 -5 10 -9 29 -10 19 -1 34 2 34 7 0 5 -7 7
-15 4 -20 -8 -19 1 3 22 16 17 16 18 -2 11 -14 -5 -17 -3 -13 8 4 8 1 17 -5
21 -6 4 -8 3 -4 -4 7 -12 -19 -42 -37 -42 -6 0 -2 6 9 14 10 8 19 20 19 28 0
8 10 12 25 11 14 -1 19 0 13 3 -7 3 -13 9 -13 13 0 14 51 63 58 57 3 -4 0 -11
-8 -16 -12 -8 -12 -10 -1 -10 11 0 11 -3 1 -15 -9 -10 -9 -15 -1 -15 6 0 11 5
11 10 0 21 2 25 17 43 21 22 34 22 26 0 -3 -10 -3 -15 1 -11 4 3 9 14 11 25 1
10 7 17 12 16 5 -1 10 4 10 12 0 9 -11 5 -34 -12 -44 -34 -62 -19 -30 25 13
17 28 28 32 24 5 -4 6 0 2 9 -3 9 5 27 19 42 13 14 24 31 24 37 0 5 5 10 11
10 7 0 6 -9 -4 -23 -15 -23 -14 -24 16 -41 28 -15 29 -15 10 0 -28 20 -29 30
-3 37 11 3 20 11 19 19 0 10 -2 10 -6 1 -2 -7 -10 -13 -15 -13 -6 0 -8 3 -5 7
4 3 3 11 -2 17 -6 7 -2 20 11 36 11 14 17 19 13 12 -4 -7 -1 -11 6 -10 7 2 16
-8 20 -22 5 -17 7 -19 8 -7 1 10 -7 30 -16 44 -10 15 -12 24 -5 20 8 -6 12 -2
12 12 0 12 5 21 11 21 7 0 8 -7 4 -17 -11 -31 -10 -37 8 -41 9 -2 17 1 17 7 0
6 -7 8 -16 4 -14 -5 -15 -3 -4 16 7 15 8 26 2 34 -7 8 -6 18 3 30 11 15 17 16
34 7 13 -6 21 -7 21 -1 0 5 -9 13 -21 16 l-21 7 23 24 c12 13 19 24 16 24 -4
0 2 18 13 40 13 25 25 38 32 34 8 -5 9 -1 5 10 -4 11 -3 15 4 11 6 -4 9 1 7
11 -2 12 2 18 10 16 8 -1 12 3 9 10 -3 7 6 32 20 55 13 24 21 43 18 43 -3 0 2
11 11 26 11 16 20 22 27 15 6 -6 2 -17 -12 -32 -11 -12 -18 -25 -14 -28 4 -3
11 -10 16 -16 5 -6 6 0 2 12 -4 15 0 26 14 35 16 11 17 16 6 31 -14 19 -9 60
7 51 5 -3 4 -13 -4 -22 -9 -12 -6 -11 10 2 22 19 30 32 13 22 -14 -9 -23 26
-10 38 9 8 10 6 5 -9 -4 -11 -4 -16 0 -12 4 4 13 2 21 -4 9 -9 13 -8 13 0 0 6
-5 11 -11 11 -6 0 -9 9 -6 20 3 11 1 18 -3 15 -4 -3 -6 4 -3 14 3 12 11 17 19
14 8 -3 11 -10 7 -17 -3 -6 0 -5 8 2 12 11 11 15 -3 23 -24 13 -23 29 2 29 11
0 19 -5 18 -11 -2 -6 4 -14 12 -16 12 -4 12 -3 2 5 -8 5 -13 12 -13 16 3 20 0
26 -9 21 -5 -3 -10 -1 -10 4 0 6 5 11 11 11 5 0 8 4 5 9 -3 5 1 22 9 37 8 16
15 35 15 42 0 7 5 10 10 7 8 -5 8 -11 1 -19 -12 -14 -1 -31 34 -56 18 -14 19
-13 8 1 -7 9 -10 19 -6 23 4 4 0 4 -10 0 -25 -9 -21 5 6 17 19 8 18 9 -8 4
-24 -5 -27 -4 -18 6 8 8 9 18 3 29 -6 11 -4 26 5 43 7 14 11 28 7 31 -3 3 1 6
8 6 7 0 11 3 7 6 -3 3 3 26 13 50 11 24 16 44 12 44 -4 0 -1 4 5 8 7 4 15 19
17 32 2 14 5 27 6 30 2 3 2 9 1 13 -1 4 6 10 14 13 8 4 15 10 15 16 0 5 -6 6
-12 2 -10 -6 -10 -4 0 7 6 7 12 24 12 38 0 13 3 21 8 17 7 -7 8 -12 11 -38 2
-17 11 -4 16 22 2 13 0 30 -6 39 -8 12 -9 11 -4 -9 5 -22 5 -23 -6 -7 -18 30
5 44 25 16 9 -13 16 -18 16 -12 0 7 -5 15 -11 18 -6 4 -8 13 -5 21 3 9 0 11
-11 7 -12 -5 -13 -2 -5 13 5 10 11 24 12 29 1 6 7 9 13 7 6 -2 4 5 -4 14 -12
16 -12 17 4 11 10 -4 23 -7 28 -7 6 0 8 -4 4 -9 -3 -5 -2 -12 3 -15 5 -3 9 2
9 11 0 9 -8 18 -18 20 -20 5 -34 33 -22 42 8 6 9 10 17 54 3 12 5 24 6 27 2 3
2 8 1 13 0 4 3 7 8 7 5 0 8 11 6 25 -1 16 3 25 11 25 8 0 14 5 14 11 0 5 -4 8
-8 5 -5 -3 -9 1 -9 9 0 8 4 12 9 9 5 -3 7 6 4 20 -3 15 -1 24 5 21 5 -4 6 -12
2 -18 -4 -7 2 -5 13 3 29 22 30 24 12 17 -10 -4 -19 -3 -19 1 -7 39 -4 52 12
57 21 7 25 20 7 31 -7 4 -8 3 -4 -4 4 -7 2 -12 -4 -12 -7 0 -9 7 -6 16 3 9 6
18 6 20 0 2 6 4 14 4 8 0 18 5 22 11 4 8 -1 9 -17 4 -23 -7 -23 -7 -7 11 9 11
18 26 20 34 2 8 10 18 18 22 11 6 10 7 -4 5 -11 -1 -20 -10 -22 -20 -1 -11 -5
-22 -8 -25 -8 -7 4 69 12 83 3 5 7 25 8 44 1 20 8 38 18 43 9 5 14 13 11 19
-4 5 -1 9 4 9 6 0 11 5 11 11 0 8 -5 8 -15 -1 -8 -7 -12 -16 -9 -21 3 -5 1 -9
-5 -9 -5 0 -9 9 -8 20 1 11 5 20 9 20 4 0 5 9 3 20 -2 11 0 20 6 20 5 0 9 5 9
11 0 5 -4 8 -9 5 -4 -3 -6 6 -3 19 2 14 8 25 13 25 5 0 6 -8 2 -17 -4 -13 -1
-12 11 4 9 13 13 29 9 40 -6 15 -4 16 8 6 10 -8 19 -9 29 -1 12 8 12 9 -2 4
-19 -6 -40 23 -35 46 2 7 2 10 0 6 -9 -16 -20 -7 -19 13 0 11 12 26 25 33 20
11 21 14 7 19 -10 4 -15 3 -11 -3 3 -6 1 -10 -4 -10 -6 0 -10 11 -9 25 1 14 6
25 10 25 3 0 16 13 28 30 16 22 17 28 6 24 -9 -3 -16 -13 -16 -21 0 -8 -5 -11
-12 -7 -7 4 -8 3 -4 -4 4 -7 3 -12 -2 -12 -5 0 -9 15 -8 34 0 19 4 32 7 31 3
-2 5 34 4 81 0 46 2 84 5 84 3 0 11 -10 19 -21 11 -19 11 -21 -4 -16 -10 4
-14 3 -10 -4 10 -14 28 -6 31 14 1 9 -1 15 -6 12 -4 -3 -10 2 -14 10 -3 8 -1
17 4 20 4 3 10 0 12 -7 3 -8 6 -7 10 3 7 17 -23 23 -33 6 -4 -5 -9 -5 -13 2
-4 6 -3 11 1 11 5 0 8 25 6 55 -1 46 1 55 18 60 10 4 19 11 19 18 0 8 -3 8
-12 -1 -19 -19 -24 -15 -26 23 -2 19 1 35 6 35 4 0 17 7 28 16 18 15 18 15 -3
5 -31 -16 -31 -16 -29 37 1 26 -1 59 -5 75 -4 15 -4 25 1 22 5 -3 11 -1 14 4
3 5 -2 12 -11 15 -14 6 -14 8 3 21 16 11 17 16 6 27 -11 11 -12 10 -6 -6 5
-12 4 -17 -3 -13 -6 4 -9 28 -8 54 1 27 -2 58 -6 71 -5 12 -5 22 1 22 4 0 11
-8 13 -17 4 -16 5 -16 6 -1 0 9 -5 23 -12 30 -16 16 -19 88 -3 88 6 0 5 4 -3
9 -20 13 -22 38 -5 45 16 6 19 26 3 26 -5 0 -7 -4 -4 -10 3 -6 1 -10 -4 -10
-6 0 -11 9 -11 20 0 14 5 18 18 13 12 -4 11 -1 -4 10 -12 9 -21 26 -20 39 1
13 -3 27 -9 31 -6 5 -2 6 8 3 12 -4 17 -2 14 6 -2 7 -9 12 -14 11 -5 -1 -10 8
-10 20 -3 32 -11 88 -18 120 -3 18 -2 26 5 22 6 -3 7 0 4 10 -4 8 0 23 7 33
11 14 9 13 -9 -2 -23 -20 -31 -10 -9 13 8 9 8 12 0 7 -18 -10 -21 37 -3 52 13
12 13 13 -3 8 -15 -5 -17 -2 -12 15 5 15 4 19 -4 15 -6 -4 -11 0 -11 9 0 9 4
14 8 11 4 -2 14 0 22 6 13 8 12 9 -2 5 -22 -8 -41 17 -33 43 6 18 9 19 23 8
15 -12 16 -11 3 5 -10 12 -17 14 -26 7 -10 -8 -14 -2 -19 26 -4 20 -5 39 -2
42 3 3 7 0 7 -6 1 -7 2 -17 3 -24 0 -6 8 -13 16 -15 9 -3 11 -1 5 4 -5 4 -11
16 -13 25 -2 13 2 16 15 11 10 -3 15 -3 11 1 -5 6 -22 11 -48 15 -5 1 -10 24
-13 64 -1 9 -5 17 -10 17 -4 0 -6 4 -2 9 3 5 1 12 -5 16 -5 3 -10 14 -10 23 0
15 2 15 10 2 6 -10 10 -11 10 -2 0 24 -2 27 -16 24 -9 -2 -14 5 -14 20 0 13
-4 30 -10 38 -6 9 -5 20 3 29 9 12 9 13 0 7 -11 -6 -14 -3 -13 19 0 3 -7 19
-16 36 -8 17 -13 37 -10 45 3 8 1 14 -5 14 -6 0 -7 5 -4 10 3 6 1 10 -4 10 -6
0 -11 5 -11 11 0 6 7 8 16 5 8 -3 12 -2 9 4 -3 6 -13 10 -21 10 -16 0 -19 16
-4 25 13 8 13 25 -1 25 -5 0 -7 -6 -3 -12 5 -9 4 -10 -4 -3 -19 18 -54 128
-38 122 7 -3 13 1 13 8 0 7 -8 10 -16 8 -17 -4 -45 52 -35 68 3 5 -1 9 -8 10
-7 0 -4 4 7 9 20 9 20 9 0 9 -15 1 -26 17 -45 64 -13 34 -23 68 -21 76 1 7 -2
10 -8 6 -6 -3 -11 2 -11 12 0 10 -7 27 -15 37 -12 16 -12 22 -2 28 9 6 8 8 -3
8 -9 0 -33 38 -60 94 -25 52 -41 92 -35 89 5 -4 0 5 -11 18 -30 34 -46 68 -40
84 3 10 0 12 -12 8 -9 -3 -14 -2 -9 2 4 5 -1 17 -10 28 -10 11 -12 17 -6 13 9
-5 11 -2 7 8 -3 9 -9 14 -13 11 -11 -6 -39 47 -36 67 2 10 -1 16 -7 15 -5 -1
-21 15 -35 37 -13 21 -19 35 -11 31 7 -3 6 -1 -3 7 -30 25 -67 90 -62 107 4 9
3 13 -2 9 -10 -10 -38 19 -30 32 3 5 -1 10 -10 10 -11 0 -15 5 -12 15 4 8 1
17 -5 21 -7 5 -8 2 -4 -7 4 -8 -1 -3 -13 11 -11 14 -26 36 -33 50 -7 14 -22
33 -33 42 -11 10 -16 17 -12 18 5 0 1 7 -7 16 -9 8 -13 20 -10 26 4 6 2 8 -3
5 -6 -4 -16 0 -23 8 -7 8 -9 15 -4 15 5 0 -2 7 -14 16 -14 9 -21 22 -18 31 3
8 2 12 -3 9 -4 -3 -17 4 -27 16 -19 21 -19 21 6 9 22 -11 23 -10 8 2 -10 8
-15 17 -11 21 4 4 0 4 -8 1 -18 -7 -44 19 -34 35 4 6 2 9 -3 8 -5 -2 -20 8
-35 22 -24 24 -25 26 -9 44 13 15 13 17 2 11 -20 -12 -41 -15 -35 -5 3 4 -2
11 -11 14 -8 3 -13 10 -10 14 3 5 -6 15 -20 22 -14 8 -22 20 -19 27 2 8 1 12
-4 9 -4 -3 -18 7 -31 21 -20 23 -21 29 -10 47 12 20 12 20 -7 4 -19 -17 -20
-17 -44 15 -13 17 -23 36 -21 40 1 5 -1 6 -6 3 -12 -7 -163 149 -154 159 4 5
2 5 -5 2 -13 -8 -120 89 -115 105 1 5 -2 7 -8 3 -5 -3 -28 11 -49 32 -22 21
-53 48 -68 60 -49 39 -88 75 -74 67 9 -4 12 -3 7 4 -4 6 -13 9 -20 6 -16 -6
-58 44 -49 59 3 6 1 7 -6 3 -6 -4 -8 -12 -5 -18 5 -7 2 -8 -5 -4 -7 5 -10 15
-7 23 3 8 1 11 -5 8 -11 -7 -38 8 -79 45 -14 12 -38 29 -53 37 -17 8 -26 20
-24 28 4 9 -1 11 -14 8 -10 -3 -19 0 -19 6 0 6 -7 11 -15 11 -8 0 -23 8 -33
18 -10 10 -26 21 -35 25 -9 3 -17 14 -17 24 0 15 -2 16 -10 3 -7 -11 -10 -11
-10 -2 0 7 -4 10 -10 7 -5 -3 -10 -3 -10 2 0 4 -23 21 -50 36 -28 16 -50 33
-50 38 0 6 -4 8 -9 4 -5 -3 -15 1 -23 8 -7 7 -28 19 -45 26 -18 7 -30 18 -26
24 3 6 1 7 -6 3 -6 -4 -18 -2 -27 4 -11 10 -12 16 -2 28 12 14 10 14 -10 1
-20 -12 -24 -12 -32 1 -5 8 -10 11 -10 6 0 -5 -8 -2 -17 6 -10 9 -28 19 -40
22 -13 4 -23 12 -23 17 0 6 -4 7 -10 4 -5 -3 -10 -1 -10 4 0 6 -6 11 -12 11
-24 1 -168 77 -160 85 4 5 2 5 -4 2 -11 -6 -102 28 -114 42 -3 3 -11 7 -19 9
-8 2 -32 12 -54 23 -23 10 -49 19 -58 19 -10 0 -21 5 -24 10 -3 6 -14 10 -24
10 -10 0 -24 7 -31 15 -7 8 -16 12 -21 10 -4 -3 -16 -2 -26 4 -10 5 -31 14
-46 20 -15 6 -26 15 -22 20 3 5 0 13 -6 17 -7 4 -9 3 -5 -4 3 -6 2 -13 -3 -16
-15 -10 -41 5 -41 23 0 13 -2 13 -9 2 -6 -8 -14 -10 -22 -5 -8 5 -21 10 -29
11 -53 9 -229 71 -223 78 5 4 3 5 -3 2 -13 -8 -124 12 -124 22 0 3 -19 7 -43
8 -23 2 -43 7 -45 13 -2 6 -8 8 -12 5 -5 -3 -29 0 -54 6 -36 9 -44 15 -41 30
2 11 0 17 -6 14 -5 -4 -7 -10 -4 -15 3 -5 1 -11 -4 -14 -5 -4 -12 -2 -16 4 -4
6 -10 8 -15 5 -4 -2 -34 0 -66 6 -33 6 -66 12 -74 14 -8 1 -14 8 -12 16 3 10
0 10 -12 0 -11 -9 -29 -10 -73 -2 -58 10 -104 15 -223 26 -36 3 -87 8 -115 11
-108 12 -359 16 -590 11 -51 -2 -69 1 -67 11 1 6 0 12 -3 12 -3 0 -6 -3 -6 -7z
m5177 -5503 c1 -18 -3 -27 -10 -24 -10 4 -14 42 -7 63 4 13 16 -15 17 -39z
m-941 -2369 c-3 -6 -11 -8 -17 -5 -6 4 -5 9 3 15 16 10 23 4 14 -10z m-429
-473 c5 -7 2 -9 -9 -5 -11 4 -14 2 -10 -9 3 -7 0 -14 -6 -14 -12 0 -15 23 -4
33 10 10 21 8 29 -5z m-286 -279 c0 -6 -7 -8 -16 -5 -8 3 -12 2 -9 -3 3 -5 1
-12 -4 -15 -10 -7 -23 19 -14 28 11 10 43 7 43 -5z m-330 -261 c0 -5 -4 -7 -9
-3 -5 3 -19 -7 -31 -22 -13 -16 -32 -28 -46 -28 -27 -1 -32 10 -8 19 22 9 26
8 18 -6 -4 -7 -3 -8 5 -4 6 4 9 12 5 17 -8 13 37 48 53 42 7 -3 13 -9 13 -15z
m-235 -168 c-3 -6 -17 -8 -31 -6 -13 3 -24 0 -24 -6 0 -6 -3 -8 -7 -4 -4 4 6
18 22 31 25 19 31 21 38 9 4 -8 5 -19 2 -24z m-683 -362 c-9 -9 -15 -9 -24 0
-7 7 -17 8 -30 1 -10 -5 -18 -7 -18 -4 0 3 15 12 33 20 35 15 60 4 39 -17z
m-82 -8 c0 -5 -5 -10 -11 -10 -5 0 -7 5 -4 10 3 6 8 10 11 10 2 0 4 -4 4 -10z
m-3385 -140 c3 -5 2 -10 -4 -10 -5 0 -13 5 -16 10 -3 6 -2 10 4 10 5 0 13 -4
16 -10z m155 -52 c0 -5 -9 -4 -20 2 -11 6 -20 12 -20 14 0 2 9 2 20 -1 11 -3
20 -9 20 -15z m2407 -78 c-1 -21 -17 -29 -17 -9 0 6 -9 1 -20 -12 -10 -13 -19
-19 -20 -13 0 5 6 16 13 24 10 12 9 12 -6 1 -9 -8 -20 -11 -24 -7 -9 9 -1 14
31 20 16 3 31 8 34 11 9 9 11 6 9 -15z m-1913 -36 c4 -10 1 -14 -6 -12 -15 5
-23 28 -10 28 5 0 13 -7 16 -16z m1296 -56 c0 -4 -4 -8 -9 -8 -6 0 -12 4 -15
8 -3 5 1 9 9 9 8 0 15 -4 15 -9z m160 2 c0 -5 -2 -10 -4 -10 -3 0 -8 5 -11 10
-3 6 -1 10 4 10 6 0 11 -4 11 -10z m-600 -20 c0 -5 -2 -10 -4 -10 -3 0 -8 5
-11 10 -3 6 -1 10 4 10 6 0 11 -4 11 -10z"/>
<path d="M7964 1128 l-19 -23 23 19 c12 11 22 21 22 23 0 8 -8 2 -26 -19z"/>
<path d="M7750 980 c0 -5 5 -10 11 -10 5 0 7 5 4 10 -3 6 -8 10 -11 10 -2 0
-4 -4 -4 -10z"/>
<path d="M5722 10004 c10 -10 20 -16 22 -13 3 3 -5 11 -17 18 -21 13 -21 12
-5 -5z"/>
<path d="M4415 9980 c3 -5 8 -10 11 -10 2 0 4 5 4 10 0 6 -5 10 -11 10 -5 0
-7 -4 -4 -10z"/>
<path d="M6146 9918 c3 -4 9 -8 15 -8 5 0 9 4 9 8 0 5 -7 9 -15 9 -8 0 -12 -4
-9 -9z"/>
<path d="M6307 9899 c7 -7 15 -10 18 -7 3 3 -2 9 -12 12 -14 6 -15 5 -6 -5z"/>
<path d="M3856 9887 c3 -10 9 -15 12 -12 3 3 0 11 -7 18 -10 9 -11 8 -5 -6z"/>
<path d="M6530 9820 c0 -5 5 -10 11 -10 5 0 7 5 4 10 -3 6 -8 10 -11 10 -2 0
-4 -4 -4 -10z"/>
<path d="M6590 9806 c0 -2 7 -7 16 -10 8 -3 12 -2 9 4 -6 10 -25 14 -25 6z"/>
<path d="M6989 9683 c-13 -16 -12 -17 4 -4 9 7 17 15 17 17 0 8 -8 3 -21 -13z"/>
<path d="M6920 9686 c0 -2 8 -10 18 -17 15 -13 16 -12 3 4 -13 16 -21 21 -21
13z"/>
<path d="M7015 9661 c-3 -5 -2 -12 3 -15 5 -3 9 1 9 9 0 17 -3 19 -12 6z"/>
<path d="M7110 9606 c0 -2 7 -7 16 -10 8 -3 12 -2 9 4 -6 10 -25 14 -25 6z"/>
<path d="M7516 9433 c-6 -14 -5 -15 5 -6 7 7 10 15 7 18 -3 3 -9 -2 -12 -12z"/>
<path d="M7587 9399 c7 -7 15 -10 18 -7 3 3 -2 9 -12 12 -14 6 -15 5 -6 -5z"/>
<path d="M7736 9282 c-3 -5 1 -9 9 -9 8 0 12 4 9 9 -3 4 -7 8 -9 8 -2 0 -6 -4
-9 -8z"/>
<path d="M7910 9165 c0 -7 30 -13 34 -7 3 4 -4 9 -15 9 -10 1 -19 0 -19 -2z"/>
<path d="M7975 9120 c-3 -5 -1 -10 4 -10 6 0 11 5 11 10 0 6 -2 10 -4 10 -3 0
-8 -4 -11 -10z"/>
<path d="M8100 9060 c-12 -7 -10 -9 7 -7 12 0 19 5 17 9 -6 10 -6 10 -24 -2z"/>
<path d="M2130 9039 c0 -5 5 -7 10 -4 6 3 10 8 10 11 0 2 -4 4 -10 4 -5 0 -10
-5 -10 -11z"/>
<path d="M2073 9005 c0 -8 4 -12 9 -9 5 3 6 10 3 15 -9 13 -12 11 -12 -6z"/>
<path d="M8296 8858 c3 -5 10 -6 15 -3 13 9 11 12 -6 12 -8 0 -12 -4 -9 -9z"/>
<path d="M8375 8809 c-4 -6 -5 -12 -2 -15 2 -3 7 2 10 11 7 17 1 20 -8 4z"/>
<path d="M8426 8737 c4 -10 14 -22 23 -27 14 -7 17 -5 16 10 -1 11 -5 23 -9
27 -4 5 -7 4 -6 -2 5 -24 -1 -27 -15 -9 -13 16 -14 16 -9 1z"/>
<path d="M8556 8662 c-2 -4 -1 -14 4 -22 7 -11 9 -9 7 8 -1 24 -3 26 -11 14z"/>
<path d="M8627 8599 c7 -7 15 -10 18 -7 3 3 -2 9 -12 12 -14 6 -15 5 -6 -5z"/>
<path d="M8587 8579 c7 -7 15 -10 18 -7 3 3 -2 9 -12 12 -14 6 -15 5 -6 -5z"/>
<path d="M8630 8541 c0 -6 4 -12 8 -15 5 -3 9 1 9 9 0 8 -4 15 -9 15 -4 0 -8
-4 -8 -9z"/>
<path d="M8670 8540 c0 -5 5 -10 11 -10 5 0 7 5 4 10 -3 6 -8 10 -11 10 -2 0
-4 -4 -4 -10z"/>
<path d="M8685 8499 c-4 -6 -4 -13 -1 -16 3 -4 6 -1 6 6 0 7 5 9 12 5 7 -4 8
-3 4 4 -9 15 -13 15 -21 1z"/>
<path d="M8786 8402 c-3 -5 1 -9 9 -9 8 0 12 4 9 9 -3 4 -7 8 -9 8 -2 0 -6 -4
-9 -8z"/>
<path d="M8804 8362 c4 -3 14 -7 22 -8 9 -1 13 0 10 4 -4 3 -14 7 -22 8 -9 1
-13 0 -10 -4z"/>
<path d="M9033 8105 c0 -8 4 -12 9 -9 5 3 6 10 3 15 -9 13 -12 11 -12 -6z"/>
<path d="M9107 8079 c7 -7 15 -10 18 -7 3 3 -2 9 -12 12 -14 6 -15 5 -6 -5z"/>
<path d="M9070 8040 c0 -5 5 -10 11 -10 5 0 7 5 4 10 -3 6 -8 10 -11 10 -2 0
-4 -4 -4 -10z"/>
<path d="M9094 8009 c-3 -6 -2 -15 3 -20 5 -5 9 -1 9 11 0 23 -2 24 -12 9z"/>
<path d="M9170 8016 c0 -2 8 -10 18 -17 15 -13 16 -12 3 4 -13 16 -21 21 -21
13z"/>
<path d="M9155 7950 c-4 -6 -11 -7 -17 -4 -7 4 -8 2 -4 -5 6 -9 11 -9 22 0 14
11 18 19 10 19 -3 0 -8 -5 -11 -10z"/>
<path d="M9155 7921 c-6 -11 13 -26 22 -17 4 3 1 6 -6 6 -7 0 -9 5 -6 10 3 6
4 10 1 10 -3 0 -7 -4 -11 -9z"/>
<path d="M9270 7846 c0 -2 7 -7 16 -10 8 -3 12 -2 9 4 -6 10 -25 14 -25 6z"/>
<path d="M9246 7802 c-3 -5 1 -9 9 -9 8 0 12 4 9 9 -3 4 -7 8 -9 8 -2 0 -6 -4
-9 -8z"/>
<path d="M9250 7770 c-9 -6 -10 -10 -3 -10 6 0 15 5 18 10 8 12 4 12 -15 0z"/>
<path d="M9277 7753 c-10 -9 -9 -23 1 -23 5 0 9 7 9 15 0 17 -1 18 -10 8z"/>
<path d="M9319 7693 c-13 -16 -12 -17 4 -4 16 13 21 21 13 21 -2 0 -10 -8 -17
-17z"/>
<path d="M9336 7673 c-6 -14 -5 -15 5 -6 7 7 10 15 7 18 -3 3 -9 -2 -12 -12z"/>
<path d="M9310 7665 c0 -13 20 -35 32 -35 4 0 8 5 8 11 0 5 -4 8 -9 4 -6 -3
-14 3 -20 12 -6 10 -11 13 -11 8z"/>
<path d="M9356 7577 c3 -10 9 -15 12 -12 3 3 0 11 -7 18 -10 9 -11 8 -5 -6z"/>
<path d="M9413 7568 c1 -15 6 -23 11 -18 4 4 4 16 -2 26 -9 16 -10 14 -9 -8z"/>
<path d="M9410 7516 c0 -8 4 -17 9 -20 5 -4 7 3 4 14 -6 23 -13 26 -13 6z"/>
<path d="M9469 7477 c6 -8 7 -18 3 -22 -4 -5 -1 -5 6 -1 10 6 10 11 1 22 -6 8
-14 14 -16 14 -3 0 0 -6 6 -13z"/>
<path d="M9454 7403 c3 -3 17 -7 32 -9 14 -1 23 0 20 3 -3 4 -18 8 -32 9 -14
2 -24 0 -20 -3z"/>
<path d="M9536 7307 c3 -10 9 -15 12 -12 3 3 0 11 -7 18 -10 9 -11 8 -5 -6z"/>
<path d="M9575 7309 c-4 -6 -5 -12 -2 -15 2 -3 7 2 10 11 7 17 1 20 -8 4z"/>
<path d="M716 7298 c3 -5 10 -6 15 -3 13 9 11 12 -6 12 -8 0 -12 -4 -9 -9z"/>
<path d="M9533 7257 c-4 -6 -1 -7 7 -2 9 6 10 1 5 -16 l-7 -24 17 23 c9 12 22
19 28 16 7 -4 9 -3 4 1 -11 12 -47 13 -54 2z"/>
<path d="M9630 7236 c0 -2 8 -10 18 -17 15 -13 16 -12 3 4 -13 16 -21 21 -21
13z"/>
<path d="M9560 7200 c8 -5 20 -10 25 -10 6 0 3 5 -5 10 -8 5 -19 10 -25 10 -5
0 -3 -5 5 -10z"/>
<path d="M9619 7153 c-13 -16 -12 -17 4 -4 9 7 17 15 17 17 0 8 -8 3 -21 -13z"/>
<path d="M9637 7133 c-10 -9 -9 -23 1 -23 5 0 9 7 9 15 0 17 -1 18 -10 8z"/>
<path d="M9642 7078 c-15 -15 -15 -28 0 -28 6 0 8 3 5 7 -4 3 -2 12 4 20 14
16 7 17 -9 1z"/>
<path d="M9636 7027 c3 -10 9 -15 12 -12 3 3 0 11 -7 18 -10 9 -11 8 -5 -6z"/>
<path d="M9667 6993 c5 -12 3 -14 -7 -8 -8 5 -11 4 -6 -3 4 -6 13 -9 22 -5 11
4 12 9 3 19 -15 19 -20 18 -12 -3z"/>
<path d="M9710 6919 c0 -5 5 -7 10 -4 6 3 10 8 10 11 0 2 -4 4 -10 4 -5 0 -10
-5 -10 -11z"/>
<path d="M9736 6867 c3 -10 9 -15 12 -12 3 3 0 11 -7 18 -10 9 -11 8 -5 -6z"/>
<path d="M9720 6815 c0 -5 5 -17 10 -25 5 -8 10 -10 10 -5 0 6 -5 17 -10 25
-5 8 -10 11 -10 5z"/>
<path d="M9755 6790 c-3 -5 -3 -10 2 -10 4 0 1 -5 -7 -11 -12 -8 -12 -10 -1
-7 8 2 15 12 17 21 3 19 -2 22 -11 7z"/>
<path d="M9776 6747 c3 -10 9 -15 12 -12 3 3 0 11 -7 18 -10 9 -11 8 -5 -6z"/>
<path d="M9774 6698 c-4 -6 -3 -8 4 -4 5 3 12 1 14 -6 3 -8 6 -9 11 -1 4 6 0
13 -8 17 -8 3 -17 0 -21 -6z"/>
<path d="M9790 6600 c0 -5 7 -10 16 -10 9 0 12 -5 8 -12 -4 -7 -3 -8 4 -4 16
10 15 14 -8 26 -14 7 -20 7 -20 0z"/>
<path d="M9844 6519 c-3 -6 -2 -15 3 -20 5 -5 9 -1 9 11 0 23 -2 24 -12 9z"/>
<path d="M9873 6487 c0 -8 6 -14 14 -14 9 0 10 4 2 14 -6 7 -12 13 -14 13 -1
0 -2 -6 -2 -13z"/>
<path d="M9882 6398 c-15 -15 -15 -28 0 -28 6 0 8 3 5 7 -4 3 -2 12 4 20 14
16 7 17 -9 1z"/>
<path d="M9914 6282 c4 -3 14 -7 22 -8 9 -1 13 0 10 4 -4 3 -14 7 -22 8 -9 1
-13 0 -10 -4z"/>
<path d="M9930 6206 c0 -2 7 -7 16 -10 8 -3 12 -2 9 4 -6 10 -25 14 -25 6z"/>
<path d="M9915 6150 c3 -5 8 -10 11 -10 2 0 4 5 4 10 0 6 -5 10 -11 10 -5 0
-7 -4 -4 -10z"/>
<path d="M9970 6140 c0 -5 5 -10 11 -10 5 0 7 5 4 10 -3 6 -8 10 -11 10 -2 0
-4 -4 -4 -10z"/>
<path d="M9947 6093 c3 -7 6 -13 8 -13 2 0 5 6 8 13 3 8 -1 14 -8 14 -7 0 -11
-6 -8 -14z"/>
<path d="M9956 6053 c-6 -14 -5 -15 5 -6 7 7 10 15 7 18 -3 3 -9 -2 -12 -12z"/>
<path d="M9940 6025 c0 -8 29 -12 39 -5 9 5 4 8 -13 8 -14 0 -26 -2 -26 -3z"/>
<path d="M10035 5960 c3 -5 8 -10 11 -10 2 0 4 5 4 10 0 6 -5 10 -11 10 -5 0
-7 -4 -4 -10z"/>
<path d="M9974 5942 c4 -3 14 -7 22 -8 9 -1 13 0 10 4 -4 3 -14 7 -22 8 -9 1
-13 0 -10 -4z"/>
<path d="M9955 5921 c-6 -11 13 -26 22 -17 4 3 1 6 -6 6 -7 0 -9 5 -6 10 3 6
4 10 1 10 -3 0 -7 -4 -11 -9z"/>
<path d="M256 5873 c-6 -14 -5 -15 5 -6 7 7 10 15 7 18 -3 3 -9 -2 -12 -12z"/>
<path d="M9965 5880 c-3 -6 1 -7 9 -4 18 7 21 14 7 14 -6 0 -13 -4 -16 -10z"/>
<path d="M9970 5855 c-11 -13 -10 -14 4 -9 9 3 16 10 16 15 0 13 -6 11 -20 -6z"/>
<path d="M9995 5840 c-3 -5 -1 -10 4 -10 6 0 11 5 11 10 0 6 -2 10 -4 10 -3 0
-8 -4 -11 -10z"/>
<path d="M9979 5815 c17 -33 31 -51 31 -40 0 6 -10 21 -21 35 -13 17 -17 18
-10 5z"/>
<path d="M9995 5749 c-4 -6 -5 -12 -2 -15 2 -3 7 2 10 11 7 17 1 20 -8 4z"/>
<path d="M10031 5743 c3 -20 -2 -27 -11 -13 -8 12 -9 10 -7 -7 2 -12 6 -25 10
-28 4 -3 5 -2 2 2 -3 3 2 14 11 24 10 11 12 19 4 24 -6 3 -10 3 -9 -2z"/>
<path d="M10079 5733 c-13 -16 -12 -17 4 -4 9 7 17 15 17 17 0 8 -8 3 -21 -13z"/>
<path d="M10055 5661 c-3 -5 -2 -12 3 -15 5 -3 9 1 9 9 0 17 -3 19 -12 6z"/>
<path d="M10016 5645 c-3 -8 -1 -15 4 -15 6 0 10 7 10 15 0 8 -2 15 -4 15 -2
0 -6 -7 -10 -15z"/>
<path d="M10035 5619 c-3 -4 2 -6 10 -5 21 3 28 13 10 13 -9 0 -18 -4 -20 -8z"/>
<path d="M9998 5613 c7 -3 16 -2 19 1 4 3 -2 6 -13 5 -11 0 -14 -3 -6 -6z"/>
<path d="M10015 5581 c-3 -5 0 -13 6 -17 7 -4 9 -3 5 4 -3 5 0 13 6 15 9 4 10
6 1 6 -6 1 -14 -3 -18 -8z"/>
<path d="M10075 5549 c-4 -6 -5 -12 -2 -15 2 -3 7 2 10 11 7 17 1 20 -8 4z"/>
<path d="M10034 5534 c5 -12 1 -14 -17 -9 l-22 6 23 -14 c12 -7 20 -15 17 -18
-3 -3 2 -6 10 -6 9 0 11 4 6 11 -5 6 -7 19 -6 29 2 9 -1 17 -7 17 -6 0 -7 -7
-4 -16z"/>
<path d="M10034 5462 c4 -7 2 -12 -3 -12 -6 0 -11 -4 -11 -10 0 -15 17 -12 23
5 4 8 1 17 -5 21 -7 4 -8 3 -4 -4z"/>
<path d="M10030 5379 c0 -5 5 -7 10 -4 6 3 10 8 10 11 0 2 -4 4 -10 4 -5 0
-10 -5 -10 -11z"/>
<path d="M10066 5378 c3 -5 10 -6 15 -3 13 9 11 12 -6 12 -8 0 -12 -4 -9 -9z"/>
<path d="M10062 5324 c10 -10 20 -16 22 -13 3 3 -5 11 -17 18 -21 13 -21 12
-5 -5z"/>
<path d="M10040 5310 c6 -11 13 -20 16 -20 2 0 0 9 -6 20 -6 11 -13 20 -16 20
-2 0 0 -9 6 -20z"/>
<path d="M10020 5259 c0 -6 4 -8 9 -5 5 4 11 1 13 -6 3 -8 6 -7 10 3 4 10 -1
15 -13 16 -10 1 -19 -3 -19 -8z"/>
<path d="M10065 5240 c-3 -6 1 -7 9 -4 18 7 21 14 7 14 -6 0 -13 -4 -16 -10z"/>
<path d="M190 5226 c0 -2 7 -7 16 -10 8 -3 12 -2 9 4 -6 10 -25 14 -25 6z"/>
<path d="M10026 5201 c-3 -5 0 -11 7 -14 8 -3 14 1 14 9 0 16 -13 19 -21 5z"/>
<path d="M10054 5138 c-4 -7 -4 -10 1 -6 4 4 15 2 24 -5 14 -11 14 -10 2 6
-16 20 -18 21 -27 5z"/>
<path d="M10023 5110 c1 -21 10 -18 13 5 1 8 -2 15 -6 15 -5 0 -8 -9 -7 -20z"/>
<path d="M10055 5100 c3 -5 8 -10 11 -10 2 0 4 5 4 10 0 6 -5 10 -11 10 -5 0
-7 -4 -4 -10z"/>
<path d="M10086 5098 c3 -5 10 -6 15 -3 13 9 11 12 -6 12 -8 0 -12 -4 -9 -9z"/>
<path d="M10095 5069 c-4 -6 -5 -12 -2 -15 2 -3 7 2 10 11 7 17 1 20 -8 4z"/>
<path d="M10027 5042 c8 -5 9 -13 3 -22 -6 -8 -10 -19 -9 -25 0 -5 6 1 13 15
15 26 12 40 -7 40 -9 0 -9 -2 0 -8z"/>
<path d="M10051 5004 c0 -11 3 -14 6 -6 3 7 2 16 -1 19 -3 4 -6 -2 -5 -13z"/>
<path d="M10026 4972 c-3 -5 1 -9 9 -9 8 0 12 4 9 9 -3 4 -7 8 -9 8 -2 0 -6
-4 -9 -8z"/>
<path d="M10110 4959 c0 -5 5 -7 10 -4 6 3 10 8 10 11 0 2 -4 4 -10 4 -5 0
-10 -5 -10 -11z"/>
<path d="M10090 4921 c0 -6 4 -13 10 -16 6 -3 7 1 4 9 -7 18 -14 21 -14 7z"/>
<path d="M10030 4846 c29 -17 40 -20 40 -8 0 5 -6 9 -12 9 -7 0 -22 4 -33 7
-13 5 -12 2 5 -8z"/>
<path d="M10032 4811 c-11 -7 -11 -9 0 -14 9 -3 15 1 15 9 0 8 -1 14 -1 14 -1
0 -7 -4 -14 -9z"/>
<path d="M10075 4780 c3 -5 8 -10 11 -10 2 0 4 5 4 10 0 6 -5 10 -11 10 -5 0
-7 -4 -4 -10z"/>
<path d="M10030 4770 c-8 -5 -10 -10 -5 -10 6 0 17 5 25 10 8 5 11 10 5 10 -5
0 -17 -5 -25 -10z"/>
<path d="M10113 4725 c0 -8 4 -12 9 -9 5 3 6 10 3 15 -9 13 -12 11 -12 -6z"/>
<path d="M10021 4676 c-10 -12 -8 -17 11 -26 20 -10 21 -10 6 3 -13 10 -15 16
-6 25 7 7 9 12 6 12 -3 0 -11 -6 -17 -14z"/>
<path d="M10037 4615 c-8 -8 -18 -11 -21 -7 -4 3 -4 -2 0 -11 3 -10 7 -17 8
-15 1 2 10 13 20 26 21 24 16 30 -7 7z"/>
<path d="M210 4519 c0 -5 5 -7 10 -4 6 3 10 8 10 11 0 2 -4 4 -10 4 -5 0 -10
-5 -10 -11z"/>
<path d="M10017 4475 c-4 -8 -3 -16 1 -19 4 -3 9 4 9 15 2 23 -3 25 -10 4z"/>
<path d="M10080 4460 c-9 -6 -10 -10 -3 -10 6 0 15 5 18 10 8 12 4 12 -15 0z"/>
<path d="M9993 4443 c4 -3 2 -12 -5 -20 -6 -7 -8 -16 -4 -20 3 -3 6 -1 6 6 0
7 4 10 8 7 4 -2 9 4 9 15 1 10 -3 19 -9 19 -6 0 -8 -3 -5 -7z"/>
<path d="M10036 4433 c-6 -14 -5 -15 5 -6 7 7 10 15 7 18 -3 3 -9 -2 -12 -12z"/>
<path d="M10010 4400 c-9 -6 -10 -10 -3 -10 6 0 15 5 18 10 8 12 4 12 -15 0z"/>
<path d="M10008 4369 c-10 -5 -18 -14 -18 -18 0 -5 8 -12 18 -16 13 -5 14 -4
5 6 -10 10 -9 15 5 25 20 16 14 18 -10 3z"/>
<path d="M9970 4323 c1 -13 30 -48 30 -36 0 7 -5 15 -10 18 -6 4 -8 11 -5 16
4 5 1 9 -4 9 -6 0 -11 -3 -11 -7z"/>
<path d="M9956 4297 c3 -10 9 -15 12 -12 3 3 0 11 -7 18 -10 9 -11 8 -5 -6z"/>
<path d="M9950 4255 c-7 -9 -10 -18 -6 -22 3 -3 6 -1 6 5 0 7 5 12 11 12 5 0
8 -4 5 -9 -3 -5 1 -12 9 -15 13 -5 14 -2 4 17 -6 12 -13 23 -14 25 -1 1 -8 -4
-15 -13z"/>
<path d="M9955 4180 c-8 -13 3 -30 18 -29 9 0 9 2 0 6 -7 2 -13 9 -13 14 0 6
5 7 12 3 7 -4 8 -3 4 4 -9 15 -13 15 -21 2z"/>
<path d="M10015 4180 c3 -5 8 -10 11 -10 2 0 4 5 4 10 0 6 -5 10 -11 10 -5 0
-7 -4 -4 -10z"/>
<path d="M9975 4130 c-4 -6 -11 -7 -17 -4 -7 5 -8 2 -3 -6 6 -10 4 -12 -11 -6
-14 5 -16 4 -8 -4 13 -13 40 -4 48 16 6 16 0 19 -9 4z"/>
<path d="M9940 4086 c0 -2 8 -10 18 -17 15 -13 16 -12 3 4 -13 16 -21 21 -21
13z"/>
<path d="M315 4060 c-3 -5 -1 -10 4 -10 6 0 11 5 11 10 0 6 -2 10 -4 10 -3 0
-8 -4 -11 -10z"/>
<path d="M9921 4053 c7 -10 14 -19 15 -21 1 -2 4 4 8 13 3 9 2 13 -4 10 -6 -3
-10 -1 -10 4 0 6 -5 11 -11 11 -8 0 -7 -6 2 -17z"/>
<path d="M9951 4032 c-7 -13 -6 -19 2 -19 7 0 13 9 13 19 0 10 -1 18 -3 18 -1
0 -7 -8 -12 -18z"/>
<path d="M9906 3981 c-12 -13 -14 -21 -6 -26 8 -5 6 -13 -7 -27 -10 -11 -17
-29 -15 -39 2 -11 -4 -22 -12 -25 -9 -3 -13 -10 -10 -15 2 -5 0 -17 -6 -28 -7
-14 -7 -22 2 -27 8 -5 6 -10 -8 -15 -16 -6 -16 -8 -2 -8 21 -1 32 15 18 24 -7
4 -8 11 -2 18 6 7 12 21 14 32 5 18 6 18 16 -5 7 -17 11 -20 11 -8 1 9 -3 19
-7 22 -12 7 -7 53 7 70 7 9 17 13 22 10 5 -3 9 -1 9 4 0 6 -7 13 -16 16 -15 6
-15 8 1 26 10 11 16 20 13 20 -3 0 -13 -9 -22 -19z"/>
<path d="M9935 3980 c-4 -6 -1 -9 7 -8 7 2 12 -3 10 -10 -1 -8 2 -11 8 -7 8 5
7 11 -1 21 -14 17 -16 17 -24 4z"/>
<path d="M9955 3931 c-3 -5 -2 -12 3 -15 5 -3 9 1 9 9 0 17 -3 19 -12 6z"/>
<path d="M356 3862 c-3 -5 1 -9 9 -9 8 0 12 4 9 9 -3 4 -7 8 -9 8 -2 0 -6 -4
-9 -8z"/>
<path d="M9875 3800 c3 -5 8 -10 11 -10 2 0 4 5 4 10 0 6 -5 10 -11 10 -5 0
-7 -4 -4 -10z"/>
<path d="M376 3782 c-3 -5 1 -9 9 -9 8 0 12 4 9 9 -3 4 -7 8 -9 8 -2 0 -6 -4
-9 -8z"/>
<path d="M9877 3773 c-10 -9 -9 -23 1 -23 5 0 9 7 9 15 0 17 -1 18 -10 8z"/>
<path d="M375 3751 c-3 -5 -2 -12 3 -15 5 -3 9 1 9 9 0 17 -3 19 -12 6z"/>
<path d="M9890 3719 c0 -5 5 -7 10 -4 6 3 10 8 10 11 0 2 -4 4 -10 4 -5 0 -10
-5 -10 -11z"/>
<path d="M9813 3704 c0 -16 6 -17 25 -5 11 6 9 9 -5 13 -12 3 -20 0 -20 -8z"/>
<path d="M9846 3684 c-9 -8 -16 -20 -16 -26 0 -6 1 -9 3 -7 1 2 11 14 21 27
22 25 16 30 -8 6z"/>
<path d="M400 3686 c0 -2 8 -10 18 -17 15 -13 16 -12 3 4 -13 16 -21 21 -21
13z"/>
<path d="M9850 3656 c0 -2 8 -10 18 -17 15 -13 16 -12 3 4 -13 16 -21 21 -21
13z"/>
<path d="M9906 3642 c-3 -5 1 -9 9 -9 8 0 12 4 9 9 -3 4 -7 8 -9 8 -2 0 -6 -4
-9 -8z"/>
<path d="M415 3620 c3 -5 8 -10 11 -10 2 0 4 5 4 10 0 6 -5 10 -11 10 -5 0 -7
-4 -4 -10z"/>
<path d="M9813 3575 c-3 -9 -3 -18 -1 -21 3 -3 8 4 11 16 6 23 -1 27 -10 5z"/>
<path d="M430 3561 c0 -6 4 -13 10 -16 6 -3 7 1 4 9 -7 18 -14 21 -14 7z"/>
<path d="M9850 3560 c0 -5 5 -10 11 -10 5 0 7 5 4 10 -3 6 -8 10 -11 10 -2 0
-4 -4 -4 -10z"/>
<path d="M9788 3533 c7 -3 16 -2 19 1 4 3 -2 6 -13 5 -11 0 -14 -3 -6 -6z"/>
<path d="M9753 3523 c4 -3 1 -13 -6 -21 -9 -13 -9 -14 1 -8 16 10 15 -4 -3
-28 -8 -11 -15 -25 -15 -30 0 -6 8 3 18 19 21 35 26 75 10 75 -6 0 -8 -3 -5
-7z"/>
<path d="M9813 3485 c0 -8 4 -12 9 -9 5 3 6 10 3 15 -9 13 -12 11 -12 -6z"/>
<path d="M9794 3445 c0 -13 3 -22 7 -19 8 4 6 30 -2 38 -3 3 -5 -5 -5 -19z"/>
<path d="M470 3456 c0 -2 8 -10 18 -17 15 -13 16 -12 3 4 -13 16 -21 21 -21
13z"/>
<path d="M9752 3428 c2 -6 10 -13 16 -14 7 -1 8 0 2 3 -5 2 -8 9 -4 14 3 5 0
9 -6 9 -7 0 -10 -5 -8 -12z"/>
<path d="M9714 3408 c-4 -6 -3 -8 4 -4 6 3 13 2 17 -4 3 -5 0 -10 -7 -10 -7 0
-19 -9 -26 -20 -7 -11 -8 -20 -3 -20 5 0 11 7 15 15 3 8 10 15 16 15 6 0 9 -4
5 -9 -3 -5 -2 -12 2 -14 5 -3 9 8 9 23 2 30 -20 48 -32 28z"/>
<path d="M9693 3324 c-15 -14 -22 -23 -15 -19 6 3 12 1 12 -4 0 -6 5 -11 11
-11 8 0 9 4 0 13 -11 14 -5 27 11 27 5 0 6 -5 2 -11 -4 -8 0 -8 15 0 25 14 28
23 4 14 -11 -4 -14 -3 -9 5 12 20 -1 14 -31 -14z"/>
<path d="M553 3312 c0 -12 5 -22 9 -22 11 0 10 12 -2 30 -7 12 -9 10 -7 -8z"/>
<path d="M9666 3282 c-3 -6 -1 -14 5 -17 15 -10 25 3 12 16 -7 7 -13 7 -17 1z"/>
<path d="M577 3253 c-10 -9 -9 -23 1 -23 5 0 9 7 9 15 0 17 -1 18 -10 8z"/>
<path d="M595 3200 c3 -5 8 -10 11 -10 2 0 4 5 4 10 0 6 -5 10 -11 10 -5 0 -7
-4 -4 -10z"/>
<path d="M9625 3189 c-5 -8 -4 -10 4 -5 8 6 10 0 6 -21 -5 -27 -5 -27 5 -4 11
26 -2 52 -15 30z"/>
<path d="M620 3125 c0 -2 6 -8 13 -14 10 -8 14 -7 14 2 0 8 -6 14 -14 14 -7 0
-13 -1 -13 -2z"/>
<path d="M9646 3118 c3 -4 9 -8 15 -8 5 0 9 4 9 8 0 5 -7 9 -15 9 -8 0 -12 -4
-9 -9z"/>
<path d="M9656 3087 c3 -10 9 -15 12 -12 3 3 0 11 -7 18 -10 9 -11 8 -5 -6z"/>
<path d="M631 3087 c2 -1 13 -9 24 -17 19 -14 19 -14 6 3 -7 9 -18 17 -24 17
-6 0 -8 -1 -6 -3z"/>
<path d="M9590 3050 c0 -6 7 -10 15 -10 8 0 15 2 15 4 0 2 -7 6 -15 10 -8 3
-15 1 -15 -4z"/>
<path d="M606 3038 c3 -5 10 -6 15 -3 13 9 11 12 -6 12 -8 0 -12 -4 -9 -9z"/>
<path d="M670 3001 c0 -6 4 -13 10 -16 6 -3 7 1 4 9 -7 18 -14 21 -14 7z"/>
<path d="M9591 2992 c-1 -7 -6 -10 -13 -6 -6 4 -8 3 -5 -4 8 -12 32 -10 44 3
4 4 3 5 -4 2 -6 -4 -14 -1 -16 5 -4 10 -6 10 -6 0z"/>
<path d="M697 2955 c-4 -8 -3 -16 1 -19 4 -3 9 4 9 15 2 23 -3 25 -10 4z"/>
<path d="M9552 2958 c2 -6 10 -13 16 -14 7 -1 8 0 2 3 -5 2 -8 9 -4 14 3 5 0
9 -6 9 -7 0 -10 -5 -8 -12z"/>
<path d="M9593 2935 c0 -8 4 -12 9 -9 4 3 8 9 8 15 0 5 -4 9 -8 9 -5 0 -9 -7
-9 -15z"/>
<path d="M9476 2871 c-4 -5 -2 -12 4 -16 5 -3 10 -3 11 2 1 4 5 -3 9 -17 7
-22 8 -23 9 -4 1 24 -24 51 -33 35z"/>
<path d="M9456 2833 c-6 -14 -5 -15 5 -6 7 7 10 15 7 18 -3 3 -9 -2 -12 -12z"/>
<path d="M9463 2800 c-5 -17 -8 -18 -22 -8 -14 12 -14 11 -2 -4 14 -19 31 -15
31 7 0 7 6 16 13 18 9 4 9 6 -1 6 -8 1 -16 -8 -19 -19z"/>
<path d="M775 2800 c-3 -6 1 -7 9 -4 18 7 21 14 7 14 -6 0 -13 -4 -16 -10z"/>
<path d="M9495 2799 c-4 -6 -5 -12 -2 -15 2 -3 7 2 10 11 7 17 1 20 -8 4z"/>
<path d="M9432 2760 c2 -9 -4 -14 -14 -14 -14 1 -16 -2 -7 -17 11 -21 26 -24
49 -9 11 8 7 9 -15 5 -29 -6 -29 -6 -11 9 16 13 17 18 7 29 -10 10 -12 9 -9
-3z"/>
<path d="M9390 2725 c0 -5 10 -21 21 -35 13 -17 17 -18 10 -5 -17 33 -31 51
-31 40z"/>
<path d="M815 2700 c3 -5 8 -10 11 -10 2 0 4 5 4 10 0 6 -5 10 -11 10 -5 0 -7
-4 -4 -10z"/>
<path d="M9456 2693 c-6 -14 -5 -15 5 -6 7 7 10 15 7 18 -3 3 -9 -2 -12 -12z"/>
<path d="M9490 2701 c0 -6 4 -13 10 -16 6 -3 7 1 4 9 -7 18 -14 21 -14 7z"/>
<path d="M9374 2688 c-4 -7 -3 -8 4 -4 20 12 13 -5 -8 -24 -19 -16 -19 -18 -4
-24 10 -4 22 -2 28 4 8 8 5 9 -9 4 -18 -7 -18 -6 -6 9 7 9 18 14 23 11 6 -4 5
3 -1 15 -13 24 -17 25 -27 9z"/>
<path d="M9439 2653 c-12 -16 -12 -17 2 -6 9 7 20 9 24 5 5 -4 5 -1 1 6 -9 16
-11 15 -27 -5z"/>
<path d="M9404 2622 c-13 -8 -15 -44 -2 -36 5 4 7 9 4 12 -3 3 -1 11 5 19 13
14 10 17 -7 5z"/>
<path d="M870 2605 c0 -5 5 -17 10 -25 5 -8 10 -10 10 -5 0 6 -5 17 -10 25 -5
8 -10 11 -10 5z"/>
<path d="M9320 2592 c-13 -14 -12 -15 4 -9 10 4 24 3 31 -3 10 -8 15 -7 21 2
4 7 3 10 -1 5 -5 -4 -15 -1 -24 7 -14 12 -18 12 -31 -2z"/>
<path d="M9385 2560 c-3 -6 1 -7 9 -4 18 7 21 14 7 14 -6 0 -13 -4 -16 -10z"/>
<path d="M940 2536 c0 -2 7 -7 16 -10 8 -3 12 -2 9 4 -6 10 -25 14 -25 6z"/>
<path d="M950 2506 c0 -2 7 -7 16 -10 8 -3 12 -2 9 4 -6 10 -25 14 -25 6z"/>
<path d="M9245 2480 c-3 -5 -1 -10 4 -10 6 0 11 5 11 10 0 6 -2 10 -4 10 -3 0
-8 -4 -11 -10z"/>
<path d="M9330 2459 c0 -5 5 -7 10 -4 6 3 10 8 10 11 0 2 -4 4 -10 4 -5 0 -10
-5 -10 -11z"/>
<path d="M994 2436 c1 -8 5 -18 8 -22 4 -3 5 1 4 10 -1 8 -5 18 -8 22 -4 3 -5
-1 -4 -10z"/>
<path d="M9293 2435 c0 -8 4 -12 9 -9 5 3 6 10 3 15 -9 13 -12 11 -12 -6z"/>
<path d="M9190 2395 c-10 -12 -9 -16 5 -21 23 -9 40 10 22 25 -11 9 -17 8 -27
-4z m25 -5 c3 -5 -1 -10 -10 -10 -9 0 -13 5 -10 10 3 6 8 10 10 10 2 0 7 -4
10 -10z"/>
<path d="M1030 2360 c0 -5 5 -10 11 -10 5 0 7 5 4 10 -3 6 -8 10 -11 10 -2 0
-4 -4 -4 -10z"/>
<path d="M9222 2361 c-9 -5 -4 -8 16 -7 17 1 28 4 25 9 -6 9 -25 9 -41 -2z"/>
<path d="M9169 2345 c-15 -8 -29 -22 -33 -32 -6 -17 -5 -17 8 0 7 9 18 17 23
17 6 0 16 7 23 15 15 18 12 18 -21 0z"/>
<path d="M1075 2291 c-3 -5 -2 -12 3 -15 5 -3 9 1 9 9 0 17 -3 19 -12 6z"/>
<path d="M9230 2276 c0 -2 8 -10 18 -17 15 -13 16 -12 3 4 -13 16 -21 21 -21
13z"/>
<path d="M9090 2245 c-7 -9 -8 -15 -2 -15 5 0 12 7 16 15 3 8 4 15 2 15 -2 0
-9 -7 -16 -15z"/>
<path d="M9171 2244 c0 -11 3 -14 6 -6 3 7 2 16 -1 19 -3 4 -6 -2 -5 -13z"/>
<path d="M1070 2246 c0 -2 7 -7 16 -10 8 -3 12 -2 9 4 -6 10 -25 14 -25 6z"/>
<path d="M1150 2215 c5 -7 8 -14 5 -17 -3 -2 2 -5 10 -5 10 0 12 4 5 12 -5 7
-8 14 -5 17 3 2 -2 5 -10 5 -10 0 -12 -4 -5 -12z"/>
<path d="M9093 2206 c-9 -11 -9 -15 0 -19 7 -3 14 3 14 14 2 22 2 22 -14 5z"/>
<path d="M1180 2180 c-9 -6 -10 -10 -3 -10 6 0 15 5 18 10 8 12 4 12 -15 0z"/>
<path d="M1197 2155 c-4 -8 -3 -16 1 -19 4 -3 9 4 9 15 2 23 -3 25 -10 4z"/>
<path d="M9030 2110 c8 -5 20 -10 25 -10 6 0 3 5 -5 10 -8 5 -19 10 -25 10 -5
0 -3 -5 5 -10z"/>
<path d="M9000 2091 c-8 -6 -17 -8 -21 -5 -4 2 -17 -9 -29 -26 l-21 -29 25 -7
c15 -3 23 -11 19 -17 -3 -6 -1 -7 6 -3 14 9 5 26 -15 26 -8 0 -14 3 -14 8 1
12 24 37 40 40 20 5 47 21 35 22 -5 0 -17 -4 -25 -9z"/>
<path d="M1275 2069 c-4 -6 -5 -12 -2 -15 2 -3 7 2 10 11 7 17 1 20 -8 4z"/>
<path d="M1194 2048 l-19 -23 25 20 c14 11 27 21 29 22 2 2 0 3 -6 3 -5 0 -18
-10 -29 -22z"/>
<path d="M8984 2055 c-18 -15 -18 -15 0 -8 12 4 17 3 13 -4 -3 -5 0 -10 8 -10
8 0 16 6 19 13 3 9 -1 11 -11 7 -11 -4 -14 -2 -9 5 10 16 4 15 -20 -3z"/>
<path d="M1290 2042 c0 -5 7 -9 15 -9 8 0 12 4 9 9 -3 4 -9 8 -15 8 -5 0 -9
-4 -9 -8z"/>
<path d="M9115 2040 c3 -5 8 -10 11 -10 2 0 4 5 4 10 0 6 -5 10 -11 10 -5 0
-7 -4 -4 -10z"/>
<path d="M1253 2025 c0 -8 4 -12 9 -9 5 3 6 10 3 15 -9 13 -12 11 -12 -6z"/>
<path d="M8881 1986 c-10 -12 -8 -14 14 -11 19 2 25 -1 21 -12 -3 -8 -1 -11 4
-8 6 3 10 1 10 -6 0 -7 3 -9 6 -6 8 8 -23 57 -35 57 -5 0 -14 -6 -20 -14z"/>
<path d="M1353 1983 c4 -3 -1 -12 -11 -20 -15 -13 -15 -13 6 -3 19 9 23 30 5
30 -4 0 -3 -3 0 -7z"/>
<path d="M8950 1971 c0 -6 4 -13 10 -16 6 -3 7 1 4 9 -7 18 -14 21 -14 7z"/>
<path d="M8886 1915 c4 -8 8 -15 10 -15 2 0 4 7 4 15 0 8 -4 15 -10 15 -5 0
-7 -7 -4 -15z"/>
<path d="M1393 1898 c1 -7 -4 -12 -11 -10 -8 1 -11 -2 -7 -8 5 -8 11 -8 21 1
7 6 11 15 8 20 -8 13 -14 11 -11 -3z"/>
<path d="M8881 1876 c-9 -11 -9 -16 1 -22 7 -4 10 -4 6 1 -4 4 -3 14 3 22 6 7
9 13 6 13 -2 0 -10 -6 -16 -14z"/>
<path d="M8820 1866 c0 -2 7 -7 16 -10 8 -3 12 -2 9 4 -6 10 -25 14 -25 6z"/>
<path d="M1463 1838 c2 -19 7 -25 20 -22 14 2 17 -1 12 -14 -5 -14 -4 -15 6
-4 10 9 10 15 1 24 -7 7 -12 8 -12 3 -1 -6 -7 1 -14 15 l-14 25 1 -27z"/>
<path d="M8826 1840 c5 -8 9 -21 10 -28 2 -8 5 -17 8 -20 4 -3 5 4 3 16 -2 12
-9 28 -17 35 -10 10 -11 9 -4 -3z"/>
<path d="M1416 1827 c3 -10 9 -15 12 -12 3 3 0 11 -7 18 -10 9 -11 8 -5 -6z"/>
<path d="M8750 1781 c0 -6 4 -13 10 -16 6 -3 7 1 4 9 -7 18 -14 21 -14 7z"/>
<path d="M8790 1776 c0 -2 8 -10 18 -17 15 -13 16 -12 3 4 -13 16 -21 21 -21
13z"/>
<path d="M8683 1747 c-31 -34 -34 -44 -19 -56 11 -9 16 -9 22 0 4 7 3 9 -4 5
-6 -3 -13 -2 -17 4 -3 5 -1 10 5 10 6 0 9 4 6 9 -9 14 20 32 40 25 11 -3 15
-2 9 3 -5 4 -13 12 -16 16 -3 4 -15 -3 -26 -16z"/>
<path d="M1495 1740 c3 -5 8 -10 11 -10 2 0 4 5 4 10 0 6 -5 10 -11 10 -5 0
-7 -4 -4 -10z"/>
<path d="M1565 1720 c10 -11 20 -20 23 -20 3 0 -3 9 -13 20 -10 11 -20 20 -23
20 -3 0 3 -9 13 -20z"/>
<path d="M8690 1720 c0 -5 5 -10 10 -10 6 0 10 5 10 10 0 6 -4 10 -10 10 -5 0
-10 -4 -10 -10z"/>
<path d="M1535 1700 c3 -5 8 -10 11 -10 2 0 4 5 4 10 0 6 -5 10 -11 10 -5 0
-7 -4 -4 -10z"/>
<path d="M8714 1699 c-3 -6 -1 -16 5 -22 9 -9 10 -7 5 7 -6 15 -4 17 6 11 9
-5 11 -4 6 3 -9 15 -13 15 -22 1z"/>
<path d="M1595 1690 c-3 -6 1 -7 9 -4 18 7 21 14 7 14 -6 0 -13 -4 -16 -10z"/>
<path d="M1576 1662 c-3 -5 1 -9 9 -9 8 0 12 4 9 9 -3 4 -7 8 -9 8 -2 0 -6 -4
-9 -8z"/>
<path d="M1650 1639 c0 -5 5 -7 10 -4 6 3 10 8 10 11 0 2 -4 4 -10 4 -5 0 -10
-5 -10 -11z"/>
<path d="M8562 1637 c-6 -6 -12 -19 -14 -27 -3 -16 -23 -40 -33 -40 -3 0 -3 5
0 10 14 22 -5 8 -24 -18 l-20 -28 22 -14 c20 -12 21 -11 9 2 -14 18 -6 49 12
42 14 -5 63 43 53 53 -4 3 -2 12 4 20 6 7 9 13 6 13 -2 0 -9 -6 -15 -13z"/>
<path d="M8633 1630 c5 -29 13 -33 13 -5 0 14 -4 25 -8 25 -4 0 -7 -9 -5 -20z"/>
<path d="M8710 1636 c0 -2 8 -10 18 -17 15 -13 16 -12 3 4 -13 16 -21 21 -21
13z"/>
<path d="M1660 1620 c-8 -5 -10 -10 -5 -10 6 0 17 5 25 10 8 5 11 10 5 10 -5
0 -17 -5 -25 -10z"/>
<path d="M1676 1593 c-6 -14 -5 -15 5 -6 7 7 10 15 7 18 -3 3 -9 -2 -12 -12z"/>
<path d="M8590 1581 c0 -6 4 -12 8 -15 5 -3 9 1 9 9 0 8 -4 15 -9 15 -4 0 -8
-4 -8 -9z"/>
<path d="M1709 1557 c6 -8 9 -16 6 -19 -3 -2 2 -5 10 -5 13 0 13 3 -2 19 -19
21 -31 25 -14 5z"/>
<path d="M8550 1560 c0 -5 5 -10 11 -10 5 0 7 5 4 10 -3 6 -8 10 -11 10 -2 0
-4 -4 -4 -10z"/>
<path d="M8510 1540 c0 -5 7 -7 15 -4 8 4 15 8 15 10 0 2 -7 4 -15 4 -8 0 -15
-4 -15 -10z"/>
<path d="M8431 1505 c-19 -18 -21 -26 -12 -41 6 -11 11 -14 11 -6 0 7 5 10 12
6 7 -4 8 -3 4 4 -4 6 -2 21 4 33 16 29 9 30 -19 4z m2 -20 c-3 -9 -8 -14 -10
-11 -3 3 -2 9 2 15 9 16 15 13 8 -4z"/>
<path d="M8525 1519 c-11 -16 -1 -19 13 -3 7 8 8 14 3 14 -5 0 -13 -5 -16 -11z"/>
<path d="M8464 1495 c-3 -8 -4 -20 -1 -27 3 -7 6 -3 6 10 1 13 5 20 11 17 6
-3 10 -1 10 4 0 16 -20 13 -26 -4z"/>
<path d="M8500 1486 c0 -2 8 -10 18 -17 15 -13 16 -12 3 4 -13 16 -21 21 -21
13z"/>
<path d="M1795 1471 c-3 -5 -2 -12 3 -15 5 -3 9 1 9 9 0 17 -3 19 -12 6z"/>
<path d="M1837 1459 c7 -7 15 -10 18 -7 3 3 -2 9 -12 12 -14 6 -15 5 -6 -5z"/>
<path d="M8372 1444 c-17 -16 -20 -24 -11 -30 8 -4 9 -3 5 4 -7 12 5 16 32 13
13 -2 17 25 5 32 -5 2 -18 -7 -31 -19z"/>
<path d="M1870 1440 c0 -5 5 -10 11 -10 5 0 7 5 4 10 -3 6 -8 10 -11 10 -2 0
-4 -4 -4 -10z"/>
<path d="M1850 1421 c0 -6 4 -13 10 -16 6 -3 7 1 4 9 -7 18 -14 21 -14 7z"/>
<path d="M1900 1397 c-12 -21 -12 -21 6 -7 10 8 20 15 22 16 2 1 -1 4 -5 7 -5
3 -15 -4 -23 -16z"/>
<path d="M8381 1404 c0 -11 3 -14 6 -6 3 7 2 16 -1 19 -3 4 -6 -2 -5 -13z"/>
<path d="M8411 1404 c0 -11 3 -14 6 -6 3 7 2 16 -1 19 -3 4 -6 -2 -5 -13z"/>
<path d="M1845 1380 c-3 -6 1 -7 9 -4 18 7 21 14 7 14 -6 0 -13 -4 -16 -10z"/>
<path d="M8354 1375 c-4 -8 -11 -12 -17 -8 -6 3 -7 1 -3 -5 10 -16 14 -15 26
8 6 11 8 20 5 20 -3 0 -8 -7 -11 -15z"/>
<path d="M8379 1378 c-5 -18 -6 -38 -1 -34 7 8 12 36 6 36 -2 0 -4 -1 -5 -2z"/>
<path d="M1970 1356 c0 -2 7 -7 16 -10 8 -3 12 -2 9 4 -6 10 -25 14 -25 6z"/>
<path d="M8226 1331 c-15 -16 -15 -19 -2 -24 10 -4 13 -1 10 8 -7 18 19 14 40
-8 25 -25 30 -21 9 8 -25 33 -38 37 -57 16z"/>
<path d="M1913 1325 c0 -8 4 -12 9 -9 5 3 6 10 3 15 -9 13 -12 11 -12 -6z"/>
<path d="M1996 1318 c3 -5 10 -6 15 -3 13 9 11 12 -6 12 -8 0 -12 -4 -9 -9z"/>
<path d="M8176 1282 c-2 -4 -1 -14 3 -21 6 -10 10 -9 14 3 6 16 -8 32 -17 18z"/>
<path d="M2015 1260 c3 -5 8 -10 11 -10 2 0 4 5 4 10 0 6 -5 10 -11 10 -5 0
-7 -4 -4 -10z"/>
<path d="M8290 1260 c0 -5 5 -10 11 -10 5 0 7 5 4 10 -3 6 -8 10 -11 10 -2 0
-4 -4 -4 -10z"/>
<path d="M8196 1245 c-3 -8 -1 -15 4 -15 6 0 10 7 10 15 0 8 -2 15 -4 15 -2 0
-6 -7 -10 -15z"/>
<path d="M2064 1242 c4 -3 14 -7 22 -8 9 -1 13 0 10 4 -4 3 -14 7 -22 8 -9 1
-13 0 -10 -4z"/>
<path d="M2117 1229 c7 -7 15 -10 18 -7 3 3 -2 9 -12 12 -14 6 -15 5 -6 -5z"/>
<path d="M8174 1222 c3 -6 -2 -15 -11 -21 -10 -5 -15 -12 -12 -15 3 -4 14 2
23 13 13 14 14 21 5 27 -7 4 -10 3 -5 -4z"/>
<path d="M2096 1207 c3 -10 9 -15 12 -12 3 3 0 11 -7 18 -10 9 -11 8 -5 -6z"/>
<path d="M2170 1200 c0 -5 5 -10 11 -10 5 0 7 5 4 10 -3 6 -8 10 -11 10 -2 0
-4 -4 -4 -10z"/>
<path d="M2191 1164 c0 -11 3 -14 6 -6 3 7 2 16 -1 19 -3 4 -6 -2 -5 -13z"/>
<path d="M2213 1165 c0 -8 4 -12 9 -9 5 3 6 10 3 15 -9 13 -12 11 -12 -6z"/>
<path d="M2150 1161 c0 -6 4 -13 10 -16 6 -3 7 1 4 9 -7 18 -14 21 -14 7z"/>
<path d="M8076 1155 c-9 -26 -7 -32 5 -12 6 10 9 21 6 23 -2 3 -7 -2 -11 -11z"/>
<path d="M8090 1136 c0 -2 8 -10 18 -17 15 -13 16 -12 3 4 -13 16 -21 21 -21
13z"/>
<path d="M2275 1101 c-3 -5 0 -13 6 -17 7 -4 9 -3 5 4 -3 5 0 13 6 15 9 4 10
6 1 6 -6 1 -14 -3 -18 -8z"/>
<path d="M8030 1086 c0 -2 7 -7 16 -10 8 -3 12 -2 9 4 -6 10 -25 14 -25 6z"/>
<path d="M2337 1053 c5 -12 3 -14 -8 -8 -8 5 -11 4 -6 0 4 -5 14 -10 22 -11
12 -2 12 2 5 17 -13 23 -22 25 -13 2z"/>
<path d="M2373 1034 c0 -17 2 -22 7 -13 5 6 6 18 3 26 -8 19 -10 16 -10 -13z"/>
<path d="M7847 1040 c-19 -23 -21 -30 -8 -30 5 0 13 9 16 21 7 22 17 19 21 -6
1 -8 -3 -15 -9 -15 -5 0 -8 -3 -4 -6 3 -3 14 -1 24 5 11 6 13 11 5 11 -7 0
-11 4 -8 9 3 5 0 14 -7 20 -10 8 -18 5 -30 -9z"/>
<path d="M7954 1046 c1 -8 5 -18 8 -22 4 -3 5 1 4 10 -1 8 -5 18 -8 22 -4 3
-5 -1 -4 -10z"/>
<path d="M2395 1020 c-3 -6 1 -7 9 -4 18 7 21 14 7 14 -6 0 -13 -4 -16 -10z"/>
<path d="M2410 999 c0 -5 5 -7 10 -4 6 3 10 8 10 11 0 2 -4 4 -10 4 -5 0 -10
-5 -10 -11z"/>
<path d="M7837 993 c-10 -9 -9 -23 1 -23 5 0 9 7 9 15 0 17 -1 18 -10 8z"/>
<path d="M2430 966 c0 -2 7 -7 16 -10 8 -3 12 -2 9 4 -6 10 -25 14 -25 6z"/>
<path d="M2473 947 c0 -8 6 -14 14 -14 9 0 10 4 2 14 -6 7 -12 13 -14 13 -1 0
-2 -6 -2 -13z"/>
<path d="M2540 949 c0 -5 -4 -8 -9 -4 -5 3 -12 1 -15 -4 -4 -5 2 -8 11 -7 15
3 33 26 19 26 -3 0 -6 -5 -6 -11z"/>
<path d="M7773 935 c-3 -9 -3 -18 -1 -21 3 -3 8 4 11 16 6 23 -1 27 -10 5z"/>
<path d="M7845 940 c-3 -6 1 -7 9 -4 18 7 21 14 7 14 -6 0 -13 -4 -16 -10z"/>
<path d="M7740 931 c0 -6 4 -13 10 -16 6 -3 7 1 4 9 -7 18 -14 21 -14 7z"/>
<path d="M7634 908 c-4 -7 -4 -10 1 -6 4 4 14 3 22 -4 7 -6 16 -8 19 -5 3 3
-3 10 -15 16 -15 8 -22 8 -27 -1z"/>
<path d="M2515 900 c3 -5 8 -10 11 -10 2 0 4 5 4 10 0 6 -5 10 -11 10 -5 0 -7
-4 -4 -10z"/>
<path d="M7591 889 c-21 -17 -17 -25 12 -20 4 0 7 -3 7 -9 0 -5 5 -10 12 -10
6 0 3 9 -7 20 -10 11 -13 20 -8 20 6 0 16 -7 23 -15 7 -8 18 -15 24 -14 7 0 6
2 -2 6 -6 2 -9 10 -6 15 4 7 2 8 -4 4 -6 -3 -14 0 -19 8 -7 12 -12 11 -32 -5z"/>
<path d="M7696 902 c-2 -4 0 -14 6 -22 8 -12 9 -11 4 4 -5 15 -2 17 14 13 11
-3 18 -1 14 4 -6 11 -31 12 -38 1z"/>
<path d="M2650 880 c0 -5 5 -10 11 -10 5 0 7 5 4 10 -3 6 -8 10 -11 10 -2 0
-4 -4 -4 -10z"/>
<path d="M2626 862 c-3 -5 1 -9 9 -9 8 0 12 4 9 9 -3 4 -7 8 -9 8 -2 0 -6 -4
-9 -8z"/>
<path d="M2671 844 c0 -11 3 -14 6 -6 3 7 2 16 -1 19 -3 4 -6 -2 -5 -13z"/>
<path d="M7565 848 c11 -6 27 -16 35 -22 9 -6 5 -1 -8 12 -13 12 -28 22 -35
22 -7 0 -3 -6 8 -12z"/>
<path d="M7519 839 c-12 -8 -12 -10 1 -8 28 3 41 -1 35 -11 -3 -6 1 -7 10 -4
18 7 18 7 -11 22 -13 7 -25 7 -35 1z"/>
<path d="M2635 831 c-3 -5 -2 -12 3 -15 5 -3 9 1 9 9 0 17 -3 19 -12 6z"/>
<path d="M2695 830 c-4 -6 1 -7 11 -3 13 5 15 3 9 -7 -5 -9 -4 -11 3 -6 7 4
12 11 12 17 0 12 -27 12 -35 -1z"/>
<path d="M2673 805 c0 -8 4 -12 9 -9 5 3 6 10 3 15 -9 13 -12 11 -12 -6z"/>
<path d="M2790 800 c0 -5 5 -10 11 -10 5 0 7 5 4 10 -3 6 -8 10 -11 10 -2 0
-4 -4 -4 -10z"/>
<path d="M7436 794 c-3 -9 1 -25 10 -37 11 -14 14 -16 11 -5 -3 9 -3 19 1 21
4 2 1 2 -6 0 -9 -2 -11 3 -7 17 7 24 0 27 -9 4z"/>
<path d="M7570 799 c0 -5 5 -7 10 -4 6 3 10 8 10 11 0 2 -4 4 -10 4 -5 0 -10
-5 -10 -11z"/>
<path d="M2719 773 c-13 -16 -12 -17 4 -4 16 13 21 21 13 21 -2 0 -10 -8 -17
-17z"/>
<path d="M2750 786 c0 -2 9 -6 20 -9 11 -3 18 -1 14 4 -5 9 -34 13 -34 5z"/>
<path d="M2815 780 c-3 -5 -1 -10 4 -10 6 0 11 5 11 10 0 6 -2 10 -4 10 -3 0
-8 -4 -11 -10z"/>
<path d="M7395 770 c-20 -22 -40 -27 -29 -7 4 6 -2 4 -13 -6 -11 -9 -23 -14
-28 -10 -4 5 -5 2 -1 -5 5 -7 10 -11 14 -8 3 3 11 -2 19 -12 12 -16 13 -16 6
2 -4 12 -3 17 4 13 6 -4 13 0 17 8 3 8 12 12 20 9 10 -4 14 0 13 15 -2 25 0
25 -22 1z"/>
<path d="M7475 761 c-3 -5 -2 -12 3 -15 5 -3 9 1 9 9 0 17 -3 19 -12 6z"/>
<path d="M2790 746 c0 -2 7 -7 16 -10 8 -3 12 -2 9 4 -6 10 -25 14 -25 6z"/>
<path d="M2870 741 c0 -6 4 -13 10 -16 6 -3 7 1 4 9 -7 18 -14 21 -14 7z"/>
<path d="M2900 740 c0 -5 5 -10 11 -10 5 0 7 5 4 10 -3 6 -8 10 -11 10 -2 0
-4 -4 -4 -10z"/>
<path d="M7386 724 c-4 -9 -4 -19 -1 -22 3 -3 5 0 5 7 0 7 4 9 10 6 6 -3 7 1
4 9 -8 20 -10 20 -18 0z"/>
<path d="M7282 717 c-7 -8 -9 -17 -5 -20 3 -4 2 -7 -3 -8 -5 0 -24 -2 -43 -3
-19 -2 -40 -11 -47 -21 -17 -23 -18 -35 -3 -35 5 0 8 3 6 8 -5 9 30 42 37 34
3 -3 -2 -15 -11 -26 -18 -21 -18 -21 2 -5 11 9 27 14 35 12 9 -3 6 1 -5 10
-19 16 -19 16 11 12 25 -3 31 0 29 13 -1 10 3 20 9 24 6 4 8 10 5 13 -4 3 -11
-1 -17 -8z"/>
<path d="M7310 722 c0 -5 11 -14 25 -20 14 -6 25 -10 25 -8 0 2 -11 11 -25 20
-14 9 -25 13 -25 8z"/>
<path d="M2855 700 c3 -5 8 -10 11 -10 2 0 4 5 4 10 0 6 -5 10 -11 10 -5 0 -7
-4 -4 -10z"/>
<path d="M2913 695 c0 -8 4 -12 9 -9 5 3 6 10 3 15 -9 13 -12 11 -12 -6z"/>
<path d="M2975 700 c3 -4 14 -10 25 -13 11 -3 18 -2 15 3 -3 4 -14 10 -25 13
-11 3 -18 2 -15 -3z"/>
<path d="M7430 701 c0 -6 4 -13 10 -16 6 -3 7 1 4 9 -7 18 -14 21 -14 7z"/>
<path d="M2954 686 c1 -8 5 -18 8 -22 4 -3 5 1 4 10 -1 8 -5 18 -8 22 -4 3 -5
-1 -4 -10z"/>
<path d="M7313 672 c-8 -14 -8 -19 1 -19 7 0 13 9 13 19 2 23 1 23 -14 0z"/>
<path d="M3017 649 c4 -13 8 -18 11 -10 2 7 -1 18 -6 23 -8 8 -9 4 -5 -13z"/>
<path d="M3053 640 c1 -10 5 -16 10 -13 4 2 14 -1 22 -7 25 -21 16 -5 -9 18
-23 19 -25 19 -23 2z"/>
<path d="M7144 652 c4 -7 2 -19 -4 -27 -7 -9 -8 -15 -2 -15 16 0 24 32 11 44
-9 8 -10 8 -5 -2z"/>
<path d="M3095 640 c3 -5 8 -10 11 -10 2 0 4 5 4 10 0 6 -5 10 -11 10 -5 0 -7
-4 -4 -10z"/>
<path d="M7228 623 c7 -3 16 -2 19 1 4 3 -2 6 -13 5 -11 0 -14 -3 -6 -6z"/>
<path d="M3166 603 c-6 -14 -5 -15 5 -6 7 7 10 15 7 18 -3 3 -9 -2 -12 -12z"/>
<path d="M7160 611 c0 -6 4 -13 10 -16 6 -3 7 1 4 9 -7 18 -14 21 -14 7z"/>
<path d="M7193 607 c0 -8 6 -14 14 -14 9 0 10 4 2 14 -6 7 -12 13 -14 13 -1 0
-2 -6 -2 -13z"/>
<path d="M3106 601 c-4 -5 3 -7 14 -4 23 6 26 13 6 13 -8 0 -17 -4 -20 -9z"/>
<path d="M3236 587 c3 -10 9 -15 12 -12 3 3 0 11 -7 18 -10 9 -11 8 -5 -6z"/>
<path d="M3216 577 c3 -10 9 -15 12 -12 3 3 0 11 -7 18 -10 9 -11 8 -5 -6z"/>
<path d="M7095 581 c-6 -11 13 -26 22 -17 4 3 1 6 -6 6 -7 0 -9 5 -6 10 3 6 4
10 1 10 -3 0 -7 -4 -11 -9z"/>
<path d="M3260 559 c0 -5 5 -7 10 -4 6 3 10 8 10 11 0 2 -4 4 -10 4 -5 0 -10
-5 -10 -11z"/>
<path d="M6990 561 c0 -10 19 -25 25 -20 1 2 -3 10 -11 17 -8 7 -14 8 -14 3z"/>
<path d="M7055 560 c-3 -5 -1 -10 4 -10 6 0 11 5 11 10 0 6 -2 10 -4 10 -3 0
-8 -4 -11 -10z"/>
<path d="M3335 550 c6 -10 4 -12 -8 -7 -10 3 -17 2 -17 -3 0 -13 27 -13 35 -1
3 5 0 13 -6 17 -8 5 -9 3 -4 -6z"/>
<path d="M3175 540 c-3 -5 -1 -10 4 -10 6 0 11 5 11 10 0 6 -2 10 -4 10 -3 0
-8 -4 -11 -10z"/>
<path d="M6887 533 c6 -16 42 -37 51 -29 3 3 0 6 -7 6 -7 0 -9 4 -6 10 3 6 -1
7 -10 4 -10 -4 -14 -2 -10 8 4 9 0 15 -9 15 -8 0 -12 -6 -9 -14z"/>
<path d="M7090 539 c0 -5 5 -7 10 -4 6 3 10 8 10 11 0 2 -4 4 -10 4 -5 0 -10
-5 -10 -11z"/>
<path d="M6863 511 c7 -9 12 -26 11 -39 -2 -30 9 -19 12 13 1 14 -2 25 -7 25
-6 0 -8 4 -5 8 3 5 -1 9 -9 9 -13 0 -13 -3 -2 -16z"/>
<path d="M6826 512 c-2 -4 -1 -14 5 -22 6 -11 9 -12 9 -2 0 8 5 10 13 6 8 -5
8 -2 -2 9 -15 19 -18 20 -25 9z"/>
<path d="M3230 506 c0 -2 7 -7 16 -10 8 -3 12 -2 9 4 -6 10 -25 14 -25 6z"/>
<path d="M3455 500 c3 -5 8 -10 11 -10 2 0 4 5 4 10 0 6 -5 10 -11 10 -5 0 -7
-4 -4 -10z"/>
<path d="M3335 489 c-4 -6 -5 -12 -2 -15 2 -3 7 2 10 11 7 17 1 20 -8 4z"/>
<path d="M3477 481 c-4 -17 -3 -21 5 -13 5 5 8 16 6 23 -3 8 -7 3 -11 -10z"/>
<path d="M6800 495 c0 -5 5 -17 10 -25 5 -8 10 -10 10 -5 0 6 -5 17 -10 25 -5
8 -10 11 -10 5z"/>
<path d="M3375 460 c3 -5 8 -10 11 -10 2 0 4 5 4 10 0 6 -5 10 -11 10 -5 0 -7
-4 -4 -10z"/>
<path d="M3495 461 c-6 -11 13 -26 22 -17 4 3 1 6 -6 6 -7 0 -9 5 -6 10 3 6 4
10 1 10 -3 0 -7 -4 -11 -9z"/>
<path d="M6725 461 c-3 -6 3 -9 14 -8 11 0 17 5 15 9 -7 11 -22 10 -29 -1z"/>
<path d="M6622 451 c-11 -6 -10 -10 1 -19 10 -9 18 -8 33 3 10 8 14 15 9 15
-6 0 -17 -6 -24 -12 -11 -11 -13 -10 -8 5 7 19 7 20 -11 8z"/>
<path d="M3473 435 c0 -8 4 -12 9 -9 5 3 6 10 3 15 -9 13 -12 11 -12 -6z"/>
<path d="M6565 430 c-4 -6 -11 -7 -17 -4 -6 4 -8 2 -5 -3 4 -6 -3 -11 -16 -12
-52 -1 -56 -3 -44 -23 7 -10 16 -18 21 -18 4 0 3 7 -4 15 -14 17 0 21 17 4 7
-7 18 -3 37 16 14 14 26 28 26 30 0 9 -9 5 -15 -5z m-35 -30 c0 -5 -2 -10 -4
-10 -3 0 -8 5 -11 10 -3 6 -1 10 4 10 6 0 11 -4 11 -10z"/>
<path d="M6700 436 c0 -2 7 -7 16 -10 8 -3 12 -2 9 4 -6 10 -25 14 -25 6z"/>
<path d="M6750 430 c-9 -6 -10 -10 -3 -10 6 0 15 5 18 10 8 12 4 12 -15 0z"/>
<path d="M3617 423 c-3 -5 5 -8 18 -8 13 0 21 3 18 8 -2 4 -10 7 -18 7 -8 0
-16 -3 -18 -7z"/>
<path d="M6581 412 c-6 -12 -6 -23 0 -33 8 -12 10 -12 8 1 -3 29 1 41 11 35 6
-4 8 -10 5 -15 -3 -4 2 -10 10 -13 12 -5 12 -2 3 18 -13 30 -24 31 -37 7z"/>
<path d="M6673 415 c0 -8 4 -12 9 -9 4 3 8 9 8 15 0 5 -4 9 -8 9 -5 0 -9 -7
-9 -15z"/>
<path d="M3480 400 c-9 -6 -10 -10 -3 -10 6 0 15 5 18 10 8 12 4 12 -15 0z"/>
<path d="M3695 399 c-4 -6 -4 -13 -1 -16 3 -4 6 -1 6 6 0 7 5 9 10 6 6 -3 10
-1 10 4 0 14 -17 14 -25 0z"/>
<path d="M6452 384 c10 -10 20 -15 24 -12 3 4 -5 12 -18 18 -22 12 -22 12 -6
-6z"/>
<path d="M3615 380 c3 -5 8 -10 11 -10 2 0 4 5 4 10 0 6 -5 10 -11 10 -5 0 -7
-4 -4 -10z"/>
<path d="M3816 382 c-4 -7 -2 -12 5 -12 8 0 8 -5 -2 -17 -11 -15 -10 -14 9 1
12 11 22 24 22 30 0 6 -4 5 -9 -3 -7 -11 -9 -11 -13 0 -3 10 -6 10 -12 1z"/>
<path d="M6382 383 c-6 -2 -9 -9 -6 -15 3 -5 0 -9 -7 -8 -21 3 -59 -11 -59
-22 0 -5 10 -3 23 4 12 7 28 12 35 13 7 0 17 7 22 15 7 12 11 10 19 -10 5 -14
10 -20 10 -13 1 16 -10 43 -18 42 -3 0 -12 -3 -19 -6z"/>
<path d="M6428 379 c6 -9 10 -18 7 -20 -2 -3 5 -6 17 -6 11 -1 19 -1 17 0 -2
1 -15 11 -29 22 -15 12 -20 14 -12 4z"/>
<path d="M3755 371 c-3 -5 -2 -12 3 -15 5 -3 9 1 9 9 0 17 -3 19 -12 6z"/>
<path d="M3786 363 c-6 -14 -5 -15 5 -6 7 7 10 15 7 18 -3 3 -9 -2 -12 -12z"/>
<path d="M6515 360 c-3 -5 -1 -10 4 -10 6 0 11 5 11 10 0 6 -2 10 -4 10 -3 0
-8 -4 -11 -10z"/>
<path d="M3952 344 c-7 -8 -8 -14 -3 -14 10 0 25 19 20 25 -2 1 -10 -3 -17
-11z"/>
<path d="M6276 344 c-9 -8 -13 -20 -10 -25 10 -16 27 -5 29 19 2 26 1 27 -19
6z"/>
<path d="M3984 334 c-18 -14 -18 -15 4 -4 12 6 22 13 22 15 0 8 -5 6 -26 -11z"/>
<path d="M6390 345 c0 -5 5 -17 10 -25 5 -8 10 -10 10 -5 0 6 -5 17 -10 25 -5
8 -10 11 -10 5z"/>
<path d="M6475 340 c-3 -5 -1 -10 4 -10 6 0 11 5 11 10 0 6 -2 10 -4 10 -3 0
-8 -4 -11 -10z"/>
<path d="M4020 330 c-8 -5 -11 -13 -6 -17 5 -4 11 -2 13 5 3 6 10 9 15 6 7 -4
8 -2 4 4 -9 14 -7 14 -26 2z"/>
<path d="M6350 331 c0 -7 -4 -9 -10 -6 -5 3 -10 1 -10 -4 0 -6 4 -11 9 -11 13
0 25 20 17 27 -3 4 -6 1 -6 -6z"/>
<path d="M4125 313 c-11 -3 -24 -10 -30 -15 -12 -13 35 0 50 13 5 5 7 8 5 8
-3 -1 -14 -3 -25 -6z"/>
<path d="M3855 300 c-3 -5 -1 -10 4 -10 6 0 11 5 11 10 0 6 -2 10 -4 10 -3 0
-8 -4 -11 -10z"/>
<path d="M4039 308 c-6 -18 -3 -46 3 -42 5 4 7 13 4 21 -5 11 -2 13 9 9 9 -3
13 -2 10 4 -5 9 -24 14 -26 8z"/>
<path d="M6024 301 c5 -7 -1 -10 -16 -7 -13 2 -29 -1 -35 -6 -7 -6 -13 -7 -13
-3 0 4 -7 2 -15 -5 -8 -7 -15 -18 -15 -24 0 -6 6 -4 13 5 11 15 15 15 32 3 22
-16 35 -18 35 -4 0 6 -3 9 -7 9 -20 -3 -34 2 -29 10 8 13 36 7 47 -10 7 -11 9
-11 9 4 0 9 5 17 11 17 5 0 7 -5 3 -12 -4 -7 -3 -8 4 -4 16 10 15 14 -9 27
-15 8 -19 8 -15 0z"/>
<path d="M6067 295 c3 -8 9 -12 14 -9 5 3 9 0 9 -5 0 -6 5 -11 10 -11 19 0 10
17 -15 28 -20 9 -23 9 -18 -3z"/>
<path d="M3756 287 c3 -10 9 -15 12 -12 3 3 0 11 -7 18 -10 9 -11 8 -5 -6z"/>
<path d="M4150 291 c0 -5 5 -13 10 -16 6 -3 10 -2 10 4 0 5 -4 13 -10 16 -5 3
-10 2 -10 -4z"/>
<path d="M6293 285 c0 -8 4 -15 9 -15 4 0 8 4 8 9 0 6 -4 12 -8 15 -5 3 -9 -1
-9 -9z"/>
<path d="M6155 280 c-3 -5 -1 -10 4 -10 6 0 11 5 11 10 0 6 -2 10 -4 10 -3 0
-8 -4 -11 -10z"/>
<path d="M4114 266 c1 -8 5 -18 8 -22 4 -3 5 1 4 10 -1 8 -5 18 -8 22 -4 3 -5
-1 -4 -10z"/>
<path d="M5856 272 c-4 -7 -5 -12 -2 -12 2 0 11 -3 19 -6 8 -3 17 2 21 12 5
14 4 15 -8 5 -11 -9 -15 -9 -18 1 -3 9 -6 9 -12 0z"/>
<path d="M6253 265 c0 -8 4 -12 9 -9 5 3 6 10 3 15 -9 13 -12 11 -12 -6z"/>
<path d="M4140 266 c0 -2 8 -10 18 -17 15 -13 16 -12 3 4 -13 16 -21 21 -21
13z"/>
<path d="M4188 263 c7 -3 16 -2 19 1 4 3 -2 6 -13 5 -11 0 -14 -3 -6 -6z"/>
<path d="M4439 257 c6 -8 8 -17 4 -20 -3 -4 -1 -7 5 -7 14 0 14 2 6 24 -3 9
-11 16 -16 16 -7 0 -6 -5 1 -13z"/>
<path d="M4470 260 c0 -5 5 -10 11 -10 5 0 7 5 4 10 -3 6 -8 10 -11 10 -2 0
-4 -4 -4 -10z"/>
<path d="M5902 250 c-7 -11 -8 -20 -3 -20 9 0 24 30 18 36 -1 2 -8 -6 -15 -16z"/>
<path d="M6050 250 c-6 -11 -8 -20 -6 -20 3 0 10 9 16 20 6 11 8 20 6 20 -3 0
-10 -9 -16 -20z"/>
<path d="M6190 258 c0 -4 4 -8 9 -8 6 0 12 4 15 8 3 5 -1 9 -9 9 -8 0 -15 -4
-15 -9z"/>
<path d="M6149 243 c-13 -16 -12 -17 4 -4 16 13 21 21 13 21 -2 0 -10 -8 -17
-17z"/>
<path d="M4410 241 c0 -6 4 -12 8 -15 5 -3 9 1 9 9 0 8 -4 15 -9 15 -4 0 -8
-4 -8 -9z"/>
<path d="M4530 240 c0 -5 5 -10 10 -10 6 0 10 5 10 10 0 6 -4 10 -10 10 -5 0
-10 -4 -10 -10z"/>
<path d="M5654 239 c-3 -6 -1 -16 4 -21 8 -8 11 -5 9 11 -1 24 -3 25 -13 10z"/>
<path d="M5846 235 c4 -8 8 -15 10 -15 2 0 4 7 4 15 0 8 -4 15 -10 15 -5 0 -7
-7 -4 -15z"/>
<path d="M6017 235 c-4 -8 -3 -16 1 -19 4 -3 9 4 9 15 2 23 -3 25 -10 4z"/>
<path d="M5450 231 c0 -7 -4 -9 -10 -6 -5 3 -10 1 -10 -5 0 -7 8 -9 21 -5 14
5 19 3 15 -3 -4 -6 2 -8 16 -4 16 4 18 7 8 10 -8 3 -21 9 -27 15 -9 6 -13 6
-13 -2z"/>
<path d="M4215 220 c3 -5 8 -10 11 -10 2 0 4 5 4 10 0 6 -5 10 -11 10 -5 0 -7
-4 -4 -10z"/>
<path d="M4510 220 c0 -5 5 -10 11 -10 5 0 7 5 4 10 -3 6 -8 10 -11 10 -2 0
-4 -4 -4 -10z"/>
<path d="M4576 221 c-3 -5 2 -15 12 -22 15 -13 16 -12 4 3 -11 14 -10 17 10
21 22 4 22 4 1 6 -12 0 -24 -3 -27 -8z"/>
<path d="M4782 216 c16 -18 73 -32 63 -16 -3 5 -13 6 -23 3 -15 -6 -15 -5 -3
10 7 10 9 17 3 17 -6 0 -12 -6 -15 -12 -3 -10 -8 -10 -23 1 -18 14 -18 14 -2
-3z"/>
<path d="M4849 215 c5 -5 10 -17 13 -25 3 -10 6 -6 10 10 3 20 0 26 -13 26
-11 0 -15 -4 -10 -11z"/>
<path d="M4890 215 c-7 -9 -10 -18 -6 -22 3 -3 6 -1 6 6 0 8 8 10 23 6 12 -3
18 -3 12 2 -5 5 -13 12 -16 16 -3 4 -12 1 -19 -8z"/>
<path d="M4941 213 c8 -13 17 -23 22 -23 4 0 6 4 3 9 -4 5 -3 11 1 14 5 2 3 3
-3 1 -6 -1 -17 3 -24 9 -8 8 -8 5 1 -10z"/>
<path d="M5339 226 c0 -1 -3 -12 -5 -25 -2 -14 -3 -23 -2 -20 2 2 11 13 21 25
14 17 15 21 2 21 -8 0 -15 -1 -16 -1z"/>
<path d="M5375 212 c-7 -19 -6 -22 6 -22 5 0 7 5 4 10 -9 14 18 12 35 -2 12
-11 12 -10 2 3 -6 9 -10 18 -7 20 2 3 -5 5 -15 5 -11 0 -22 -6 -25 -14z"/>
<path d="M6070 226 c0 -2 7 -7 16 -10 8 -3 12 -2 9 4 -6 10 -25 14 -25 6z"/>
<path d="M4393 192 c-1 -22 0 -24 9 -8 6 10 6 22 2 26 -5 5 -10 -3 -11 -18z"/>
<path d="M5170 209 c0 -5 5 -7 10 -4 6 3 10 8 10 11 0 2 -4 4 -10 4 -5 0 -10
-5 -10 -11z"/>
<path d="M5191 200 c-13 -11 -19 -20 -14 -20 6 0 18 9 28 20 23 25 17 25 -14
0z"/>
<path d="M5250 209 c0 -5 4 -8 9 -4 5 3 12 1 16 -5 3 -5 11 -10 18 -10 6 0 2
7 -9 15 -23 17 -34 19 -34 4z"/>
<path d="M5616 205 c-3 -8 -1 -15 4 -15 6 0 10 7 10 15 0 8 -2 15 -4 15 -2 0
-6 -7 -10 -15z"/>
<path d="M5691 211 c-8 -5 -16 -17 -17 -26 -1 -9 1 -14 4 -10 4 4 6 9 4 12 -2
3 5 11 15 19 20 15 16 19 -6 5z"/>
<path d="M4660 200 c-9 -6 -10 -10 -3 -10 6 0 15 5 18 10 8 12 4 12 -15 0z"/>
<path d="M4760 206 c0 -2 8 -10 18 -17 15 -13 16 -12 3 4 -13 16 -21 21 -21
13z"/>
<path d="M5151 194 c0 -11 3 -14 6 -6 3 7 2 16 -1 19 -3 4 -6 -2 -5 -13z"/>
<path d="M5231 194 c0 -11 3 -14 6 -6 3 7 2 16 -1 19 -3 4 -6 -2 -5 -13z"/>
<path d="M5510 201 c0 -10 29 -36 34 -30 1 2 -6 12 -16 22 -10 9 -18 13 -18 8z"/>
<path d="M5537 204 c7 -3 15 -5 19 -4 4 1 11 -4 16 -12 8 -11 9 -10 6 1 -2 8
-15 15 -29 17 -13 1 -18 0 -12 -2z"/>
<path d="M5870 206 c0 -2 7 -7 16 -10 8 -3 12 -2 9 4 -6 10 -25 14 -25 6z"/>
<path d="M5946 198 c3 -5 10 -6 15 -3 13 9 11 12 -6 12 -8 0 -12 -4 -9 -9z"/>
<path d="M4920 186 c0 -2 7 -7 16 -10 8 -3 12 -2 9 4 -6 10 -25 14 -25 6z"/>
<path d="M5030 181 c0 -6 4 -13 10 -16 6 -3 7 1 4 9 -7 18 -14 21 -14 7z"/>
<path d="M5394 179 c-12 -20 12 -31 27 -12 13 17 13 17 -5 3 -18 -14 -19 -13
-13 3 7 19 2 23 -9 6z"/>
<path d="M5478 183 c7 -3 16 -2 19 1 4 3 -2 6 -13 5 -11 0 -14 -3 -6 -6z"/>
<path d="M4836 167 c3 -10 9 -15 12 -12 3 3 0 11 -7 18 -10 9 -11 8 -5 -6z"/>
<path d="M5453 165 c0 -8 4 -12 9 -9 5 3 6 10 3 15 -9 13 -12 11 -12 -6z"/>
<path d="M4710 158 c0 -4 4 -8 9 -8 6 0 12 4 15 8 3 5 -1 9 -9 9 -8 0 -15 -4
-15 -9z"/>
<path d="M4750 159 c0 -5 5 -7 10 -4 6 3 10 8 10 11 0 2 -4 4 -10 4 -5 0 -10
-5 -10 -11z"/>
<path d="M5255 160 c3 -5 8 -10 11 -10 2 0 4 5 4 10 0 6 -5 10 -11 10 -5 0 -7
-4 -4 -10z"/>
<path d="M5310 166 c0 -2 7 -7 16 -10 8 -3 12 -2 9 4 -6 10 -25 14 -25 6z"/>
<path d="M5580 166 c0 -2 8 -10 18 -17 15 -13 16 -12 3 4 -13 16 -21 21 -21
13z"/>
<path d="M4800 140 c-8 -5 -10 -10 -5 -10 6 0 17 5 25 10 8 5 11 10 5 10 -5 0
-17 -5 -25 -10z"/>
<path d="M4975 140 c3 -5 8 -10 11 -10 2 0 4 5 4 10 0 6 -5 10 -11 10 -5 0 -7
-4 -4 -10z"/>
<path d="M5290 139 c0 -5 5 -7 10 -4 6 3 10 8 10 11 0 2 -4 4 -10 4 -5 0 -10
-5 -10 -11z"/>
</g>
</svg>
